<svg width="533" height="438" viewBox="0 0 533 438" fill="none" xmlns="http://www.w3.org/2000/svg">
<path d="M467 224C467 294.17 411.006 351 342 351C272.994 351 217 294.17 217 224C217 153.83 272.994 97 342 97C411.006 97 467 153.83 467 224Z" fill="#404F94" fill-opacity="0.5" stroke="#78E5F4" stroke-width="4"/>
<path d="M408 224C408 332.839 321.553 421 215 421C108.447 421 22 332.839 22 224C22 115.161 108.447 27 215 27C321.553 27 408 115.161 408 224Z" fill="#18B6CC" fill-opacity="0.5" stroke="#78E5F4" stroke-width="4"/>
<line y1="222" x2="533" y2="222" stroke="#78E5F4" stroke-width="4"/>
<line x1="344" x2="344" y2="438" stroke="#78E5F4" stroke-width="4"/>
<path d="M121.061 409.592C124.73 414.2 131.366 414.871 135.883 411.089C140.4 407.307 141.087 400.505 137.418 395.897C133.748 391.288 127.112 390.618 122.595 394.399C118.078 398.181 117.391 404.983 121.061 409.592ZM485.908 104.115L463.381 107.921L477.766 125.988L485.908 104.115ZM130.485 404.309L473.353 117.235L470.861 114.106L127.993 401.18L130.485 404.309Z" fill="#78E5F4"/>
</svg>
