<svg width="832" height="739" viewBox="0 0 832 739" fill="none" xmlns="http://www.w3.org/2000/svg">
<path d="M441.361 518.824C441.361 639.111 346.616 736.5 229.892 736.5C113.168 736.5 18.4233 639.111 18.4233 518.824C18.4233 398.537 113.168 301.148 229.892 301.148C346.616 301.148 441.361 398.537 441.361 518.824Z" fill="#18B6CC" stroke="#78E5F4" stroke-width="5"/>
<line y1="-2.5" x2="722.296" y2="-2.5" transform="matrix(-0.113044 0.99359 -0.992728 -0.120377 229.973 2)" stroke="#78E5F4" stroke-width="5"/>
<line y1="-2.5" x2="743.555" y2="-2.5" transform="matrix(-0.916783 0.399386 -0.378359 -0.925659 830 422.701)" stroke="#78E5F4" stroke-width="5"/>
<line y1="-2.5" x2="640.557" y2="-2.5" transform="matrix(-0.981166 -0.193169 0.18165 -0.983363 830 422.701)" stroke="#78E5F4" stroke-width="5"/>
<line y1="-2.5" x2="621.848" y2="-2.5" transform="matrix(0.315613 0.948888 -0.942529 0.334124 229.973 2)" stroke="#78E5F4" stroke-width="5"/>
<line y1="-2.5" x2="369.337" y2="-2.5" transform="matrix(0.608466 0.79358 -0.774337 0.632773 201.507 298.965)" stroke="#78E5F4" stroke-width="5"/>
<line y1="-2.5" x2="429.565" y2="-2.5" transform="matrix(-0.442939 0.896552 -0.884832 -0.46591 338.592 334.539)" stroke="#78E5F4" stroke-width="5"/>
<line x1="830" y1="425.35" y2="425.35" stroke="#78E5F4" stroke-width="5"/>
</svg>
