<svg width="885" height="623" viewBox="0 0 885 623" fill="none" xmlns="http://www.w3.org/2000/svg">
<path d="M3.71875 29H15.5781V27.5312H5.26562V6.92188H3.71875V29ZM19.7812 10.0156H21.3281V6.92188H19.7812V10.0156ZM19.8125 29H21.2812V13.3906H19.8125V29ZM32.5625 27.3125C29.7812 26.875 27.5625 26.5625 27.5625 24.6875C27.5625 23.8281 28.0156 23.2188 29.0312 22.7656C29.9688 23.3438 31.1406 23.6719 32.4375 23.6719C35.6875 23.6719 38.125 21.625 38.125 18.5156C38.125 17.3594 37.7969 16.3438 37.2344 15.5L39.2656 13.7344L38.4688 12.75L36.4062 14.5781C35.3906 13.6875 34 13.1719 32.4062 13.1719C29.125 13.1719 26.6562 15.3438 26.6562 18.4219C26.6562 19.8281 27.1719 21.0625 28.0625 21.9688C26.8594 22.7031 26.25 23.625 26.25 24.9219C26.25 26.5 27.1875 27.3438 28.4688 27.8438L25.9531 30.2344C25.9062 30.4688 25.9062 30.6875 25.9062 30.9375C25.9062 33.9844 28.5 36.0938 32.7656 36.0938C36.5312 36.0938 39.1562 34.4219 39.1562 31.5156C39.1562 28.25 35.7812 27.8281 32.5625 27.3125ZM32.4531 14.3594C34.9844 14.3594 36.6562 16.0469 36.6562 18.4688C36.6562 20.8125 35 22.4219 32.4375 22.4219C29.8438 22.4219 28.1719 20.7812 28.1719 18.4375C28.1719 16.0625 29.9062 14.3594 32.4531 14.3594ZM32.7656 34.9062C29.6094 34.9062 27.4219 33.4844 27.2812 31.0938C27.2656 30.9375 27.2656 30.7656 27.2656 30.5781L29.4531 28.1562C30.2812 28.3594 31.1875 28.5 32.0625 28.625C35.1719 29.0938 37.7344 29.4062 37.7344 31.6562C37.7344 33.6719 35.7812 34.9062 32.7656 34.9062ZM43.4844 29H44.9844V19.75C44.9844 16.6406 46.7344 14.5312 49.625 14.5312C52.5156 14.5312 53.7969 16.3438 53.7969 19.4219V29H55.2969V18.9375C55.2031 15.5312 53.4375 13.1719 49.9375 13.1719C47.7031 13.1719 45.8594 14.2969 44.9844 16.3125V6.92188H43.4844V29ZM65.3906 29.2188C66.1562 29.2188 66.9062 29.0781 67.3594 28.9531L67.3125 27.5781C66.9062 27.7344 66.2656 27.875 65.6094 27.875C63.7344 27.875 62.8125 26.8281 62.8125 24.3906V14.6562H67.3281V13.3906H62.8125V7.53125L61.3594 8.65625V13.3906H58.7188V14.6562H61.3281V24.6094C61.3281 27.6406 62.7031 29.2188 65.3906 29.2188Z" fill="black"/>
<path d="M3.71875 94H15.5781V92.5312H5.26562V71.9219H3.71875V94ZM19.7812 75.0156H21.3281V71.9219H19.7812V75.0156ZM19.8125 94H21.2812V78.3906H19.8125V94ZM34.6875 92.1406H31.1406C29.0938 92.1406 27.7969 91.5312 27.75 89.9219C27.7031 89.0781 28.0312 88.3906 28.9219 87.6719C29.8438 88.2969 31.0156 88.6406 32.3438 88.6406C35.5781 88.6406 37.9531 86.5938 37.9531 83.5C37.9531 82.4531 37.6875 81.5 37.2188 80.7031L39.625 78.5469L38.8594 77.5781L36.4531 79.7344C35.4688 78.75 34.0625 78.1719 32.375 78.1719C29.1094 78.1719 26.7031 80.3438 26.7031 83.4219C26.7031 84.7969 27.1719 86 28 86.8906C26.8125 87.8281 26.3125 88.875 26.3438 90.0469C26.3906 91.5781 27.2344 92.5312 28.375 93.0156L25.8594 95.0312C25.7812 95.3281 25.75 95.625 25.75 95.9375C25.75 99.2031 28.6094 101.125 33.0312 101.125C37.1094 101.125 39.4375 99.2344 39.4375 96.2812C39.4375 93.7188 37.7812 92.1406 34.6875 92.1406ZM32.3906 79.3906C34.8906 79.3906 36.5156 81.0781 36.5156 83.4688C36.5156 85.7969 34.8906 87.4219 32.375 87.4219C29.8438 87.4219 28.1875 85.7812 28.1875 83.4531C28.1875 81.1094 29.875 79.3906 32.3906 79.3906ZM32.9375 99.9375C28.625 99.9375 27.1562 98.0469 27.1562 95.9062V95.4531L29.3281 93.3125C29.6875 93.375 30.0625 93.4062 30.4375 93.4062H34.1562C36.9062 93.4062 38.0156 94.6406 38.0156 96.3906C38.0156 98.8906 35.7656 99.9375 32.9375 99.9375ZM43.6719 94H45.1719V84.75C45.1719 81.6406 46.9219 79.5312 49.8125 79.5312C52.7031 79.5312 53.9844 81.3438 53.9844 84.4219V94H55.4844V83.9375C55.3906 80.5312 53.625 78.1719 50.125 78.1719C47.8906 78.1719 46.0469 79.2969 45.1719 81.3125V71.9219H43.6719V94ZM65.5781 94.2188C66.3438 94.2188 67.0938 94.0781 67.5469 93.9531L67.5 92.5781C67.0938 92.7344 66.4531 92.875 65.7969 92.875C63.9219 92.875 63 91.8281 63 89.3906V79.6562H67.5156V78.3906H63V72.5312L61.5469 73.6562V78.3906H58.9062V79.6562H61.5156V89.6094C61.5156 92.6406 62.8906 94.2188 65.5781 94.2188ZM80.875 94H92.7344V92.5312H82.4219V71.9219H80.875V94ZM102.734 94.2188C105.203 94.2188 106.859 93.5 108.641 91.7031L107.594 90.75C106.078 92.3125 104.766 92.8438 102.734 92.8438C99.3594 92.8438 97.3125 90.4844 97.2188 86.5156H108.984C109.047 86.2812 109.078 85.6562 109.078 85.1719C109.078 82.2188 107.453 78.1719 102.469 78.1719C98.1719 78.1719 95.6562 81.75 95.6562 86.2812C95.6562 90.8594 98.25 94.2188 102.734 94.2188ZM97.2188 85.3906C97.4531 81.875 99.4062 79.4531 102.453 79.4531C106.047 79.4531 107.453 82.1406 107.578 84.4219C107.609 84.7188 107.609 85.0781 107.578 85.3906H97.2188ZM121.156 92.1406H117.609C115.562 92.1406 114.266 91.5312 114.219 89.9219C114.172 89.0781 114.5 88.3906 115.391 87.6719C116.312 88.2969 117.484 88.6406 118.812 88.6406C122.047 88.6406 124.422 86.5938 124.422 83.5C124.422 82.4531 124.156 81.5 123.688 80.7031L126.094 78.5469L125.328 77.5781L122.922 79.7344C121.938 78.75 120.531 78.1719 118.844 78.1719C115.578 78.1719 113.172 80.3438 113.172 83.4219C113.172 84.7969 113.641 86 114.469 86.8906C113.281 87.8281 112.781 88.875 112.812 90.0469C112.859 91.5781 113.703 92.5312 114.844 93.0156L112.328 95.0312C112.25 95.3281 112.219 95.625 112.219 95.9375C112.219 99.2031 115.078 101.125 119.5 101.125C123.578 101.125 125.906 99.2344 125.906 96.2812C125.906 93.7188 124.25 92.1406 121.156 92.1406ZM118.859 79.3906C121.359 79.3906 122.984 81.0781 122.984 83.4688C122.984 85.7969 121.359 87.4219 118.844 87.4219C116.312 87.4219 114.656 85.7812 114.656 83.4531C114.656 81.1094 116.344 79.3906 118.859 79.3906ZM119.406 99.9375C115.094 99.9375 113.625 98.0469 113.625 95.9062V95.4531L115.797 93.3125C116.156 93.375 116.531 93.4062 116.906 93.4062H120.625C123.375 93.4062 124.484 94.6406 124.484 96.3906C124.484 98.8906 122.234 99.9375 119.406 99.9375ZM135.047 78.1719C132.375 78.1719 130.625 79.2031 129.109 81.3125L130.25 82.1562C131.453 80.4062 132.875 79.5 135.047 79.5C138.312 79.5 139.719 81.2031 139.719 84.6875V85.1094H135.156C130.938 85.1094 128.5 86.4688 128.5 89.5625C128.5 92.4688 130.641 94.2188 133.797 94.2188C136.297 94.2188 138.484 92.9531 139.734 90.4844L139.828 94H141.094V84.4375C141.094 80.4844 138.953 78.1719 135.047 78.1719ZM134.047 92.9219C131.5 92.9219 130.016 91.625 130.016 89.6094C130.016 87.4375 131.703 86.25 135.219 86.25H139.719V88.5C138.75 91.25 136.844 92.9219 134.047 92.9219ZM152.203 94.2188C155 94.2188 157.203 92.6719 158.141 90.0156L156.781 89.5C156.078 91.5938 154.391 92.8438 152.188 92.8438C148.578 92.8438 146.859 89.7188 146.859 86.2188C146.859 82.75 148.562 79.5312 152.172 79.5312C154.312 79.5312 156.047 80.8125 156.891 82.9062L158.297 82.3594C157.156 79.6562 154.938 78.1719 152.172 78.1719C147.609 78.1719 145.359 82.125 145.359 86.2188C145.359 90.7344 147.922 94.2188 152.203 94.2188ZM164.328 100.672H165.953L174.391 78.3906H172.781L167.719 92.1094L161.734 78.3906H160.094L166.922 93.875L164.328 100.672Z" fill="black"/>
<path d="M3.5 159H5.64062V149.031H8.78125C9.29688 149.031 9.8125 149.016 10.2656 148.984L16.0312 159H18.4688L12.3594 148.766C15.2188 148.078 17.0312 146.062 17.0312 143.078C17.0312 139.141 13.9375 136.922 9.6875 136.922H3.5V159ZM5.65625 147.25V138.859H9.70312C12.9375 138.859 14.8906 140.422 14.8906 143.109C14.8906 145.734 13.0781 147.203 9.85938 147.25H5.65625ZM28 159.234C30.5156 159.234 32.2812 158.469 34.0312 156.641L32.5938 155.375C31.1875 156.844 29.8906 157.359 28.0156 157.359C24.875 157.359 23.0625 155.234 22.9062 151.75H34.4062C34.4688 151.516 34.5156 150.891 34.5156 150.359C34.5156 147.266 32.8438 143.141 27.75 143.141C23.2031 143.141 20.7188 146.859 20.7188 151.266C20.7188 155.75 23.2969 159.234 28 159.234ZM22.9062 150.219C23.1719 147.094 24.8906 144.906 27.7344 144.906C30.8281 144.906 32.2344 147.125 32.4219 149.234C32.4688 149.547 32.4688 149.891 32.4531 150.219H22.9062ZM44.5625 157.125C41.7812 156.719 39.625 156.469 39.625 154.75C39.625 154.016 40.0156 153.484 40.8594 153.109C41.7812 153.625 42.9062 153.922 44.1406 153.922C47.4375 153.922 50 151.828 50 148.625C50 147.5 49.6875 146.5 49.1562 145.672L51.25 143.906L50.1562 142.562L48.0312 144.438C47 143.609 45.625 143.141 44.0938 143.141C40.7656 143.141 38.1719 145.359 38.1719 148.516C38.1719 149.922 38.6719 151.141 39.5312 152.062C38.4219 152.828 37.8438 153.766 37.8438 155.078C37.8438 156.656 38.7031 157.531 39.8906 158.062L37.5312 160.219C37.5 160.422 37.4844 160.625 37.4844 160.906C37.4844 163.984 40.0781 166.172 44.5156 166.172C48.3125 166.172 51.0312 164.484 51.0312 161.438C51.0312 158.094 47.7188 157.609 44.5625 157.125ZM44.1562 144.781C46.4844 144.781 47.9531 146.328 47.9531 148.547C47.9531 150.719 46.5 152.219 44.1406 152.219C41.7812 152.219 40.3125 150.703 40.3125 148.531C40.3125 146.344 41.8438 144.781 44.1562 144.781ZM44.5 164.531C41.6719 164.531 39.6094 163.344 39.3906 161.156C39.375 161 39.3594 160.844 39.3594 160.656L41.1719 158.484C42.0469 158.688 42.9844 158.812 43.8594 158.938C46.8281 159.359 49.0625 159.656 49.0625 161.641C49.0625 163.469 47.2656 164.531 44.5 164.531ZM59.875 159.234C61.9375 159.234 63.7969 158.25 64.7656 156.344V159H66.8125V143.391H64.7656V152.609C64.7656 155.656 63.0469 157.312 60.4219 157.312C57.8594 157.312 56.5156 155.641 56.5156 152.797V143.391H54.4688V153.266C54.5312 156.641 56.2188 159.234 59.875 159.234ZM75.2188 159.234C75.8906 159.234 76.7344 159.125 77.4219 158.984L77.3906 157.219C76.9219 157.312 76.4531 157.375 76.125 157.375C74.5625 157.375 74.4062 156.375 74.4062 155.172V136.922H72.3438V155.703C72.3438 157.906 73 159.234 75.2188 159.234ZM86.2188 143.141C83.4531 143.141 81.6406 144.266 80.125 146.359L81.7031 147.516C82.7812 145.906 84.1562 144.969 86.2344 144.969C89.3594 144.969 90.5625 146.531 90.5625 149.828V150.016H86.0625C82.0312 150.016 79.5156 151.297 79.5156 154.469C79.5156 157.469 81.7344 159.234 84.9062 159.234C87.2344 159.234 89.4062 158.094 90.5781 155.828L90.7188 159H92.4375V149.469C92.4375 145.547 90.2188 143.141 86.2188 143.141ZM85.2969 157.469C82.9531 157.469 81.625 156.312 81.625 154.531C81.625 152.656 83.0938 151.547 86.1719 151.547H90.5625V153.141C89.8438 155.703 88.0156 157.469 85.2969 157.469ZM97.6094 159H99.6094V151.031C99.6094 146.797 102.078 145.156 104.156 145.156C104.781 145.156 105.391 145.312 105.938 145.609L106.875 143.891C106.203 143.391 105.312 143.141 104.438 143.141C102.578 143.141 100.406 144.25 99.625 146.656V143.391H97.6094V159Z" fill="black"/>
<path d="M3.5 224H5.64062V214.031H8.78125C9.29688 214.031 9.8125 214.016 10.2656 213.984L16.0312 224H18.4688L12.3594 213.766C15.2188 213.078 17.0312 211.062 17.0312 208.078C17.0312 204.141 13.9375 201.922 9.6875 201.922H3.5V224ZM5.65625 212.25V203.859H9.70312C12.9375 203.859 14.8906 205.422 14.8906 208.109C14.8906 210.734 13.0781 212.203 9.85938 212.25H5.65625ZM28 224.234C30.5156 224.234 32.2812 223.469 34.0312 221.641L32.5938 220.375C31.1875 221.844 29.8906 222.359 28.0156 222.359C24.875 222.359 23.0625 220.234 22.9062 216.75H34.4062C34.4688 216.516 34.5156 215.891 34.5156 215.359C34.5156 212.266 32.8438 208.141 27.75 208.141C23.2031 208.141 20.7188 211.859 20.7188 216.266C20.7188 220.75 23.2969 224.234 28 224.234ZM22.9062 215.219C23.1719 212.094 24.8906 209.906 27.7344 209.906C30.8281 209.906 32.2344 212.125 32.4219 214.234C32.4688 214.547 32.4688 214.891 32.4531 215.219H22.9062ZM46.3594 221.938H42.8594C41.1562 221.938 39.7812 221.469 39.75 219.922C39.7188 219.203 39.9844 218.578 40.7812 217.984C41.7031 218.562 42.8594 218.875 44.1406 218.875C47.4375 218.875 49.9375 216.781 49.9375 213.594C49.9375 212.578 49.6875 211.625 49.2188 210.828L51.5938 208.766L50.5312 207.422L48.1406 209.531C47.1406 208.656 45.7812 208.141 44.1562 208.141C40.8125 208.141 38.3281 210.359 38.3281 213.516C38.3281 214.844 38.7656 216.016 39.5312 216.922C38.2969 217.828 37.7812 218.922 37.8125 220.109C37.8438 221.719 38.7656 222.719 39.875 223.234L37.4219 224.922C37.3281 225.25 37.2812 225.594 37.2812 225.969C37.2812 229.312 40.375 231.141 44.7188 231.141C49 231.141 51.3125 229.188 51.3125 226.188C51.3125 223.344 49.2812 221.938 46.3594 221.938ZM44.1875 209.812C46.4844 209.812 47.9375 211.391 47.9375 213.562C47.9375 215.703 46.4844 217.203 44.1719 217.203C41.8594 217.203 40.3906 215.688 40.3906 213.547C40.3906 211.406 41.8906 209.812 44.1875 209.812ZM44.5938 229.516C40.3281 229.516 39.2188 227.688 39.2188 225.938V225.5L41.1719 223.641C41.4062 223.672 41.6406 223.688 41.8594 223.688H45.5625C48.0156 223.688 49.3281 224.609 49.3281 226.359C49.3281 228.594 47.2969 229.516 44.5938 229.516ZM60.125 224.234C62.1875 224.234 64.0469 223.25 65.0156 221.344V224H67.0625V208.391H65.0156V217.609C65.0156 220.656 63.2969 222.312 60.6719 222.312C58.1094 222.312 56.7656 220.641 56.7656 217.797V208.391H54.7188V218.266C54.7812 221.641 56.4688 224.234 60.125 224.234ZM75.4688 224.234C76.1406 224.234 76.9844 224.125 77.6719 223.984L77.6406 222.219C77.1719 222.312 76.7031 222.375 76.375 222.375C74.8125 222.375 74.6562 221.375 74.6562 220.172V201.922H72.5938V220.703C72.5938 222.906 73.25 224.234 75.4688 224.234ZM86.4688 208.141C83.7031 208.141 81.8906 209.266 80.375 211.359L81.9531 212.516C83.0312 210.906 84.4062 209.969 86.4844 209.969C89.6094 209.969 90.8125 211.531 90.8125 214.828V215.016H86.3125C82.2812 215.016 79.7656 216.297 79.7656 219.469C79.7656 222.469 81.9844 224.234 85.1562 224.234C87.4844 224.234 89.6562 223.094 90.8281 220.828L90.9688 224H92.6875V214.469C92.6875 210.547 90.4688 208.141 86.4688 208.141ZM85.5469 222.469C83.2031 222.469 81.875 221.312 81.875 219.531C81.875 217.656 83.3438 216.547 86.4219 216.547H90.8125V218.141C90.0938 220.703 88.2656 222.469 85.5469 222.469ZM97.8594 224H99.8594V216.031C99.8594 211.797 102.328 210.156 104.406 210.156C105.031 210.156 105.641 210.312 106.188 210.609L107.125 208.891C106.453 208.391 105.562 208.141 104.688 208.141C102.828 208.141 100.656 209.25 99.875 211.656V208.391H97.8594V224ZM119.156 224H131.406V221.969H121.297V201.922H119.156V224ZM141.188 224.234C143.703 224.234 145.469 223.469 147.219 221.641L145.781 220.375C144.375 221.844 143.078 222.359 141.203 222.359C138.062 222.359 136.25 220.234 136.094 216.75H147.594C147.656 216.516 147.703 215.891 147.703 215.359C147.703 212.266 146.031 208.141 140.938 208.141C136.391 208.141 133.906 211.859 133.906 216.266C133.906 220.75 136.484 224.234 141.188 224.234ZM136.094 215.219C136.359 212.094 138.078 209.906 140.922 209.906C144.016 209.906 145.422 212.125 145.609 214.234C145.656 214.547 145.656 214.891 145.641 215.219H136.094ZM159.547 221.938H156.047C154.344 221.938 152.969 221.469 152.938 219.922C152.906 219.203 153.172 218.578 153.969 217.984C154.891 218.562 156.047 218.875 157.328 218.875C160.625 218.875 163.125 216.781 163.125 213.594C163.125 212.578 162.875 211.625 162.406 210.828L164.781 208.766L163.719 207.422L161.328 209.531C160.328 208.656 158.969 208.141 157.344 208.141C154 208.141 151.516 210.359 151.516 213.516C151.516 214.844 151.953 216.016 152.719 216.922C151.484 217.828 150.969 218.922 151 220.109C151.031 221.719 151.953 222.719 153.062 223.234L150.609 224.922C150.516 225.25 150.469 225.594 150.469 225.969C150.469 229.312 153.562 231.141 157.906 231.141C162.188 231.141 164.5 229.188 164.5 226.188C164.5 223.344 162.469 221.938 159.547 221.938ZM157.375 209.812C159.672 209.812 161.125 211.391 161.125 213.562C161.125 215.703 159.672 217.203 157.359 217.203C155.047 217.203 153.578 215.688 153.578 213.547C153.578 211.406 155.078 209.812 157.375 209.812ZM157.781 229.516C153.516 229.516 152.406 227.688 152.406 225.938V225.5L154.359 223.641C154.594 223.672 154.828 223.688 155.047 223.688H158.75C161.203 223.688 162.516 224.609 162.516 226.359C162.516 228.594 160.484 229.516 157.781 229.516ZM173.562 208.141C170.797 208.141 168.984 209.266 167.469 211.359L169.047 212.516C170.125 210.906 171.5 209.969 173.578 209.969C176.703 209.969 177.906 211.531 177.906 214.828V215.016H173.406C169.375 215.016 166.859 216.297 166.859 219.469C166.859 222.469 169.078 224.234 172.25 224.234C174.578 224.234 176.75 223.094 177.922 220.828L178.062 224H179.781V214.469C179.781 210.547 177.562 208.141 173.562 208.141ZM172.641 222.469C170.297 222.469 168.969 221.312 168.969 219.531C168.969 217.656 170.438 216.547 173.516 216.547H177.906V218.141C177.188 220.703 175.359 222.469 172.641 222.469ZM190.672 224.234C193.547 224.234 195.812 222.656 196.766 219.938L194.875 219.219C194.25 221.156 192.688 222.359 190.656 222.359C187.281 222.359 185.734 219.438 185.734 216.219C185.734 213.047 187.281 210.031 190.641 210.031C192.641 210.031 194.219 211.25 194.953 213.203L196.922 212.438C195.766 209.625 193.484 208.141 190.641 208.141C185.953 208.141 183.641 212.125 183.641 216.219C183.641 220.641 186.188 224.234 190.672 224.234ZM202.281 230.688H204.531L213.094 208.391H210.844L206.031 221.391L200.562 208.391H198.297L204.938 223.812L202.281 230.688Z" fill="black"/>
<path d="M20.8281 266.922L13.9375 284.078L7.04688 266.922H3.28125V289H5.9375V270.641L12.5938 287.156H15.2812L21.9375 270.641V289H24.5938V266.922H20.8281ZM36.625 289.266C39.1719 289.266 41.0469 288.453 42.7812 286.594L40.9375 284.984C39.6406 286.359 38.3594 286.859 36.6406 286.859C33.7188 286.859 32.1406 284.984 31.9375 281.984H43.1719C43.2344 281.75 43.2969 281.125 43.2969 280.547C43.2969 277.328 41.5938 273.125 36.3594 273.125C31.5781 273.125 29.1406 276.969 29.1406 281.266C29.1406 285.656 31.6875 289.266 36.625 289.266ZM31.9375 280.047C32.2344 277.312 33.7031 275.359 36.3438 275.359C38.9688 275.359 40.3438 277.125 40.6094 279.062C40.6719 279.375 40.6719 279.703 40.6719 280.047H31.9375ZM52.7969 289.266C55.0469 289.266 57.0625 288.109 58.0781 286.047L58.1875 289H60.6562V266.922H57.9688V276.203C56.9531 274.234 54.9375 273.125 52.75 273.125C48.5156 273.125 45.9062 276.797 45.9062 281.188C45.9062 285.594 48.5156 289.266 52.7969 289.266ZM53.4219 286.859C50.3594 286.859 48.5938 284.375 48.5938 281.188C48.5938 278.016 50.3594 275.531 53.4219 275.531C56.4531 275.531 58.1875 277.984 58.1875 281.188C58.1875 284.406 56.4531 286.859 53.4219 286.859ZM65.875 270.234H68.6406V266.922H65.875V270.234ZM65.9375 289H68.5781V273.391H65.9375V289ZM78.8906 289.266C80.7812 289.266 82.625 288.406 83.6875 286.625V289H86.3125V273.391H83.6875V282.391C83.6875 285.312 82.0938 286.812 79.6094 286.812C77.25 286.812 76.0156 285.203 76.0156 282.625V273.391H73.3906V283.094C73.4375 286.438 75.0938 289.266 78.8906 289.266ZM91.5781 289H94.2344V279.969C94.2344 277.469 95.7188 275.594 98.1562 275.594C100.516 275.594 101.453 277.25 101.453 279.719V289H104.094V279.969C104.094 277.469 105.594 275.594 108 275.594C110.438 275.594 111.312 277.312 111.312 280.109V289H113.969V279.797C113.969 276.031 112.328 273.125 108.516 273.125C106.328 273.125 104.438 274.141 103.406 276.344C102.641 274.047 100.781 273.125 98.6719 273.125C96.7344 273.125 95.0312 273.938 94.125 275.844V273.391H91.5625L91.5781 289Z" fill="black"/>
<path d="M20.8281 331.922L13.9375 349.078L7.04688 331.922H3.28125V354H5.9375V335.641L12.5938 352.156H15.2812L21.9375 335.641V354H24.5938V331.922H20.8281ZM36.625 354.266C39.1719 354.266 41.0469 353.453 42.7812 351.594L40.9375 349.984C39.6406 351.359 38.3594 351.859 36.6406 351.859C33.7188 351.859 32.1406 349.984 31.9375 346.984H43.1719C43.2344 346.75 43.2969 346.125 43.2969 345.547C43.2969 342.328 41.5938 338.125 36.3594 338.125C31.5781 338.125 29.1406 341.969 29.1406 346.266C29.1406 350.656 31.6875 354.266 36.625 354.266ZM31.9375 345.047C32.2344 342.312 33.7031 340.359 36.3438 340.359C38.9688 340.359 40.3438 342.125 40.6094 344.062C40.6719 344.375 40.6719 344.703 40.6719 345.047H31.9375ZM52.7969 354.266C55.0469 354.266 57.0625 353.109 58.0781 351.047L58.1875 354H60.6562V331.922H57.9688V341.203C56.9531 339.234 54.9375 338.125 52.75 338.125C48.5156 338.125 45.9062 341.797 45.9062 346.188C45.9062 350.594 48.5156 354.266 52.7969 354.266ZM53.4219 351.859C50.3594 351.859 48.5938 349.375 48.5938 346.188C48.5938 343.016 50.3594 340.531 53.4219 340.531C56.4531 340.531 58.1875 342.984 58.1875 346.188C58.1875 349.406 56.4531 351.859 53.4219 351.859ZM65.875 335.234H68.6406V331.922H65.875V335.234ZM65.9375 354H68.5781V338.391H65.9375V354ZM78.8906 354.266C80.7812 354.266 82.625 353.406 83.6875 351.625V354H86.3125V338.391H83.6875V347.391C83.6875 350.312 82.0938 351.812 79.6094 351.812C77.25 351.812 76.0156 350.203 76.0156 347.625V338.391H73.3906V348.094C73.4375 351.438 75.0938 354.266 78.8906 354.266ZM91.5781 354H94.2344V344.969C94.2344 342.469 95.7188 340.594 98.1562 340.594C100.516 340.594 101.453 342.25 101.453 344.719V354H104.094V344.969C104.094 342.469 105.594 340.594 108 340.594C110.438 340.594 111.312 342.312 111.312 345.109V354H113.969V344.797C113.969 341.031 112.328 338.125 108.516 338.125C106.328 338.125 104.438 339.141 103.406 341.344C102.641 339.047 100.781 338.125 98.6719 338.125C96.7344 338.125 95.0312 338.938 94.125 340.844V338.391H91.5625L91.5781 354ZM127.469 354H140.109V351.391H130.219V331.922H127.469V354ZM149.688 354.266C152.234 354.266 154.109 353.453 155.844 351.594L154 349.984C152.703 351.359 151.422 351.859 149.703 351.859C146.781 351.859 145.203 349.984 145 346.984H156.234C156.297 346.75 156.359 346.125 156.359 345.547C156.359 342.328 154.656 338.125 149.422 338.125C144.641 338.125 142.203 341.969 142.203 346.266C142.203 350.656 144.75 354.266 149.688 354.266ZM145 345.047C145.297 342.312 146.766 340.359 149.406 340.359C152.031 340.359 153.406 342.125 153.672 344.062C153.734 344.375 153.734 344.703 153.734 345.047H145ZM166.5 351.938C163.719 351.547 161.641 351.375 161.641 349.797C161.641 349.188 161.953 348.75 162.609 348.438C163.531 348.906 164.609 349.172 165.797 349.172C169.141 349.172 171.812 347.047 171.812 343.75C171.812 342.672 171.531 341.688 171.031 340.875L173.172 339.094L171.797 337.375L169.578 339.297C168.531 338.547 167.188 338.125 165.719 338.125C162.344 338.125 159.641 340.375 159.641 343.609C159.641 345 160.125 346.219 160.969 347.172C159.922 347.938 159.359 348.906 159.359 350.25C159.359 351.797 160.141 352.703 161.219 353.266L159.062 355.188C159.031 355.391 159.016 355.578 159.016 355.875C159.016 359 161.594 361.25 166.188 361.25C170.016 361.25 172.828 359.562 172.828 356.344C172.828 352.922 169.578 352.391 166.5 351.938ZM165.812 340.188C167.906 340.188 169.188 341.609 169.188 343.641C169.188 345.609 167.922 347 165.797 347C163.656 347 162.375 345.609 162.375 343.625C162.375 341.625 163.703 340.188 165.812 340.188ZM166.172 359.172C163.656 359.172 161.75 358.188 161.438 356.219L161.391 355.75L162.859 353.828C163.766 354.031 164.719 354.141 165.578 354.25C168.438 354.609 170.312 354.906 170.312 356.625C170.312 358.25 168.688 359.172 166.172 359.172ZM181.828 338.125C178.969 338.125 177.094 339.328 175.578 341.406L177.609 342.875C178.547 341.422 179.875 340.438 181.859 340.438C184.812 340.438 185.812 341.859 185.828 344.906H181.406C177.562 344.906 174.969 346.141 174.969 349.375C174.969 352.469 177.281 354.266 180.453 354.266C182.594 354.266 184.75 353.25 185.859 351.219L186.031 354H188.234V344.484C188.234 340.609 185.922 338.125 181.828 338.125ZM180.969 352C178.844 352 177.688 350.984 177.688 349.469C177.688 347.891 178.938 346.844 181.562 346.844H185.828V347.859C185.312 350.203 183.609 352 180.969 352ZM198.891 354.266C201.844 354.266 204.156 352.641 205.141 349.844L202.734 348.938C202.172 350.719 200.734 351.859 198.859 351.859C195.734 351.859 194.375 349.156 194.375 346.219C194.375 343.328 195.734 340.531 198.859 340.531C200.719 340.531 202.156 341.688 202.781 343.5L205.297 342.516C204.141 339.609 201.781 338.125 198.859 338.125C194.031 338.125 191.688 342.125 191.688 346.219C191.688 350.547 194.203 354.266 198.891 354.266ZM209.969 360.703H212.859L221.547 338.391H218.641L214.109 350.672L209.156 338.391H206.234L212.703 353.734L209.969 360.703Z" fill="black"/>
<path d="M12.1562 419.234C16.3125 419.234 19.6562 416.719 19.6562 412.688C19.6562 405.375 8.75 406.922 8.75 402.391C8.75 400.766 10.125 399.609 11.9375 399.609C13.6094 399.609 14.9688 400.484 15.8281 402.109L18.6094 400.391C17.1406 397.781 14.7656 396.625 12.0469 396.625C8.42188 396.625 5.39062 398.812 5.39062 402.562C5.39062 409.656 16.2969 408 16.2969 412.984C16.2969 414.828 14.7969 416.25 12.2188 416.25C9.67188 416.25 7.64062 414.906 7.29688 412.047L3.96875 412.891C4.65625 417.094 8.29688 419.234 12.1562 419.234ZM29.5 419.297C32.0781 419.297 34.0469 418.422 35.7656 416.547L33.5469 414.594C32.3438 415.891 31.0781 416.359 29.5156 416.359C26.8281 416.359 25.4844 414.734 25.2031 412.203H36.1875C36.25 411.984 36.3125 411.344 36.3125 410.75C36.3125 407.391 34.5938 403.094 29.2344 403.094C24.2031 403.094 21.7969 407.078 21.7969 411.266C21.7969 415.547 24.3438 419.297 29.5 419.297ZM25.2031 409.859C25.5312 407.516 26.7656 405.812 29.2031 405.812C31.3594 405.812 32.7188 407.109 33.0312 408.875C33.1094 409.188 33.1406 409.516 33.125 409.859H25.2031ZM39.9062 419H43.1406V410.203C43.1406 407.906 44.5 406.109 46.75 406.109C48.9062 406.109 49.6562 407.703 49.6562 409.875V419H52.8906V410.203C52.8906 407.906 54.25 406.109 56.4688 406.109C58.6875 406.109 59.4062 407.75 59.4062 410.109V419H62.6406V409.703C62.6406 406.172 61 403.094 57.1094 403.094C55.0781 403.094 53.2031 403.969 52.0625 406.078C51.2188 403.891 49.3281 403.094 47.3906 403.094C45.625 403.094 43.9688 403.766 43 405.594V403.391H39.8906L39.9062 419ZM67.0312 400.328H70.4062V396.922H67.0312V400.328ZM67.1094 419H70.3281V403.391H67.1094V419ZM75.8438 419H84.0312C87.9062 419 91.1719 416.75 91.1719 412.703C91.1719 410.312 89.6094 407.969 87.4531 407.234C88.8438 406.562 90.0938 404.875 90.0938 402.781C90.0938 398.516 86.6406 396.922 83.1719 396.922H75.8438V419ZM79.2031 406.078V399.953H83.2344C85.4531 399.953 87 400.969 87 402.969C87 405.266 85.4062 406.078 83.6562 406.078H79.2031ZM79.2031 415.797V408.984H84.1562C86.4531 408.984 87.875 410.438 87.875 412.328C87.875 414.656 86.5156 415.797 84.0781 415.797H79.2031ZM101.703 419.297C106.406 419.297 109.562 415.594 109.562 411.156C109.562 406.734 106.406 403.094 101.703 403.094C97 403.094 93.8594 406.734 93.8594 411.156C93.8594 415.609 97 419.297 101.703 419.297ZM101.703 416.5C98.6562 416.5 97.2188 414.031 97.2188 411.156C97.2188 408.297 98.6562 405.891 101.703 405.891C104.75 405.891 106.203 408.312 106.203 411.156C106.203 414.016 104.75 416.5 101.703 416.5ZM116.094 419.297C116.906 419.297 117.953 419.156 118.719 419L118.703 416.281C118.281 416.344 117.844 416.391 117.578 416.391C116.547 416.391 116.172 415.844 116.172 414.953V396.922H112.953V415.828C112.953 418.406 114.156 419.297 116.094 419.297ZM127.422 419.297C129.422 419.297 131.281 418.406 132.344 416.641L132.469 419H135.484V396.922H132.203V405.578C131.156 403.922 129.281 403.094 127.375 403.094C123.094 403.094 120.609 406.828 120.609 411.188C120.609 415.578 123.094 419.297 127.422 419.297ZM128.203 416.359C125.359 416.359 123.891 414.094 123.891 411.188C123.891 408.312 125.359 406.031 128.203 406.031C131.031 406.031 132.469 408.281 132.469 411.188C132.469 414.125 131.031 416.359 128.203 416.359Z" fill="black"/>
<path d="M9.15625 484.234C13.3125 484.234 16.6562 481.719 16.6562 477.688C16.6562 470.375 5.75 471.922 5.75 467.391C5.75 465.766 7.125 464.609 8.9375 464.609C10.6094 464.609 11.9688 465.484 12.8281 467.109L15.6094 465.391C14.1406 462.781 11.7656 461.625 9.04688 461.625C5.42188 461.625 2.39062 463.812 2.39062 467.562C2.39062 474.656 13.2969 473 13.2969 477.984C13.2969 479.828 11.7969 481.25 9.21875 481.25C6.67188 481.25 4.64062 479.906 4.29688 477.047L0.96875 477.891C1.65625 482.094 5.29688 484.234 9.15625 484.234ZM26.5 484.297C29.0781 484.297 31.0469 483.422 32.7656 481.547L30.5469 479.594C29.3438 480.891 28.0781 481.359 26.5156 481.359C23.8281 481.359 22.4844 479.734 22.2031 477.203H33.1875C33.25 476.984 33.3125 476.344 33.3125 475.75C33.3125 472.391 31.5938 468.094 26.2344 468.094C21.2031 468.094 18.7969 472.078 18.7969 476.266C18.7969 480.547 21.3438 484.297 26.5 484.297ZM22.2031 474.859C22.5312 472.516 23.7656 470.812 26.2031 470.812C28.3594 470.812 29.7188 472.109 30.0312 473.875C30.1094 474.188 30.1406 474.516 30.125 474.859H22.2031ZM36.9062 484H40.1406V475.203C40.1406 472.906 41.5 471.109 43.75 471.109C45.9062 471.109 46.6562 472.703 46.6562 474.875V484H49.8906V475.203C49.8906 472.906 51.25 471.109 53.4688 471.109C55.6875 471.109 56.4062 472.75 56.4062 475.109V484H59.6406V474.703C59.6406 471.172 58 468.094 54.1094 468.094C52.0781 468.094 50.2031 468.969 49.0625 471.078C48.2188 468.891 46.3281 468.094 44.3906 468.094C42.625 468.094 40.9688 468.766 40 470.594V468.391H36.8906L36.9062 484ZM64.0312 465.328H67.4062V461.922H64.0312V465.328ZM64.1094 484H67.3281V468.391H64.1094V484ZM72.8438 484H81.0312C84.9062 484 88.1719 481.75 88.1719 477.703C88.1719 475.312 86.6094 472.969 84.4531 472.234C85.8438 471.562 87.0938 469.875 87.0938 467.781C87.0938 463.516 83.6406 461.922 80.1719 461.922H72.8438V484ZM76.2031 471.078V464.953H80.2344C82.4531 464.953 84 465.969 84 467.969C84 470.266 82.4062 471.078 80.6562 471.078H76.2031ZM76.2031 480.797V473.984H81.1562C83.4531 473.984 84.875 475.438 84.875 477.328C84.875 479.656 83.5156 480.797 81.0781 480.797H76.2031ZM98.7031 484.297C103.406 484.297 106.562 480.594 106.562 476.156C106.562 471.734 103.406 468.094 98.7031 468.094C94 468.094 90.8594 471.734 90.8594 476.156C90.8594 480.609 94 484.297 98.7031 484.297ZM98.7031 481.5C95.6562 481.5 94.2188 479.031 94.2188 476.156C94.2188 473.297 95.6562 470.891 98.7031 470.891C101.75 470.891 103.203 473.312 103.203 476.156C103.203 479.016 101.75 481.5 98.7031 481.5ZM113.094 484.297C113.906 484.297 114.953 484.156 115.719 484L115.703 481.281C115.281 481.344 114.844 481.391 114.578 481.391C113.547 481.391 113.172 480.844 113.172 479.953V461.922H109.953V480.828C109.953 483.406 111.156 484.297 113.094 484.297ZM124.422 484.297C126.422 484.297 128.281 483.406 129.344 481.641L129.469 484H132.484V461.922H129.203V470.578C128.156 468.922 126.281 468.094 124.375 468.094C120.094 468.094 117.609 471.828 117.609 476.188C117.609 480.578 120.094 484.297 124.422 484.297ZM125.203 481.359C122.359 481.359 120.891 479.094 120.891 476.188C120.891 473.312 122.359 471.031 125.203 471.031C128.031 471.031 129.469 473.281 129.469 476.188C129.469 479.125 128.031 481.359 125.203 481.359ZM145.906 484H158.922V480.828H149.266V461.922H145.906V484ZM168.312 484.297C170.891 484.297 172.859 483.422 174.578 481.547L172.359 479.594C171.156 480.891 169.891 481.359 168.328 481.359C165.641 481.359 164.297 479.734 164.016 477.203H175C175.062 476.984 175.125 476.344 175.125 475.75C175.125 472.391 173.406 468.094 168.047 468.094C163.016 468.094 160.609 472.078 160.609 476.266C160.609 480.547 163.156 484.297 168.312 484.297ZM164.016 474.859C164.344 472.516 165.578 470.812 168.016 470.812C170.172 470.812 171.531 472.109 171.844 473.875C171.922 474.188 171.953 474.516 171.938 474.859H164.016ZM186.516 481.516H183.156C182.109 481.516 180.594 481.359 180.578 479.938C180.562 479.422 180.75 478.938 181.297 478.562C182.234 479.062 183.359 479.344 184.594 479.344C188.016 479.344 190.734 477.172 190.734 473.812C190.734 472.828 190.5 471.906 190.078 471.109L192.391 469.188L190.719 467.125L188.344 469.188C187.344 468.5 186.062 468.094 184.594 468.094C181.094 468.094 178.406 470.391 178.406 473.703C178.406 474.938 178.781 476.047 179.422 476.953C178.109 477.812 177.562 479.016 177.562 480.25C177.578 481.969 178.609 483.031 179.656 483.641L177.391 484.734C177.266 485.094 177.172 485.531 177.172 486.047C177.172 489.531 180.75 491.156 184.953 491.156C189.609 491.156 191.906 489.094 191.906 486.016C191.906 482.594 189.109 481.516 186.516 481.516ZM184.641 470.656C186.516 470.656 187.625 472.016 187.625 473.766C187.625 475.5 186.516 476.766 184.641 476.766C182.734 476.766 181.625 475.484 181.625 473.75C181.625 472.016 182.75 470.656 184.641 470.656ZM184.734 488.672C180.562 488.672 180.188 486.938 180.188 485.984V485.609L181.75 484.234H185.234C187.094 484.234 188.812 484.547 188.812 486.281C188.812 487.984 187.219 488.672 184.734 488.672ZM200.797 468.094C197.828 468.094 195.891 469.375 194.391 471.453L196.859 473.234C197.656 471.938 198.938 470.922 200.812 470.922C203.547 470.922 204.375 472.109 204.438 474.797H200.094C196.438 474.797 193.781 475.969 193.781 479.297C193.781 482.469 196.156 484.297 199.359 484.297C201.312 484.297 203.438 483.391 204.484 481.562L204.703 484H207.375V474.5C207.375 470.656 204.969 468.094 200.797 468.094ZM200 481.547C198.078 481.547 197.094 480.672 197.094 479.391C197.094 478.109 198.109 477.141 200.281 477.141H204.438V477.625C204.109 479.734 202.531 481.547 200 481.547ZM217.797 484.297C220.828 484.297 223.188 482.609 224.203 479.766L221.266 478.656C220.781 480.281 219.469 481.359 217.766 481.359C214.875 481.359 213.703 478.875 213.703 476.219C213.703 473.609 214.891 471.031 217.766 471.031C219.469 471.031 220.766 472.141 221.297 473.781L224.359 472.594C223.188 469.594 220.781 468.094 217.766 468.094C212.812 468.094 210.422 472.125 210.422 476.219C210.422 480.453 212.906 484.297 217.797 484.297ZM228.344 490.703H231.875L240.688 468.391H237.141L232.875 479.953L228.422 468.391H224.875L231.156 483.656L228.344 490.703Z" fill="black"/>
<path d="M2.84375 549H11.4531C15.2031 549 18.6562 546.703 18.6562 542.594C18.6562 540.391 17.125 537.984 15.1094 537.188C16.3594 536.516 17.5625 534.891 17.5625 532.875C17.5625 528.453 13.8594 526.922 10.5 526.922H2.84375V549ZM6.8125 535.812V530.5H10.5625C12.4531 530.5 13.9219 531.375 13.9219 533.094C13.9219 535.266 12.4219 535.812 10.875 535.812H6.8125ZM6.8125 545.219V539.234H11.3594C13.4375 539.234 14.75 540.578 14.75 542.156C14.75 544.234 13.5625 545.219 11.5156 545.219H6.8125ZM28.8594 549.312C33.6875 549.312 36.8594 545.578 36.8594 541.156C36.8594 536.75 33.6875 533.062 28.8594 533.062C24.0312 533.062 20.8594 536.75 20.8594 541.156C20.8594 545.578 24.0312 549.312 28.8594 549.312ZM28.8594 546.031C25.9844 546.031 24.8281 543.719 24.8281 541.156C24.8281 538.594 25.9844 536.359 28.8594 536.359C31.75 536.359 32.8906 538.594 32.8906 541.156C32.8906 543.719 31.75 546.031 28.8594 546.031ZM43.125 549.312C44.0312 549.312 45.1719 549.156 45.9688 549V545.797C45.5625 545.859 45.1406 545.891 44.9219 545.891C44.1562 545.891 43.6719 545.578 43.6719 544.844V526.922H39.8594V545.891C39.8594 548.641 41.3281 549.312 43.125 549.312ZM54.4062 549.312C56.125 549.312 57.8594 548.719 58.9375 547.234L59.1094 549H62.6562V526.922H58.7812V534.953C57.7031 533.609 55.9688 533.062 54.3438 533.062C50.0156 533.062 47.6406 536.875 47.6406 541.188C47.6406 545.547 50.0156 549.312 54.4062 549.312ZM55.3281 545.859C52.7031 545.859 51.5156 543.812 51.5156 541.188C51.5156 538.594 52.7031 536.516 55.3281 536.516C57.9531 536.516 59.1094 538.562 59.1094 541.188C59.1094 543.844 57.9531 545.859 55.3281 545.859Z" fill="black"/>
<path d="M2.84375 614H11.4531C15.2031 614 18.6562 611.703 18.6562 607.594C18.6562 605.391 17.125 602.984 15.1094 602.188C16.3594 601.516 17.5625 599.891 17.5625 597.875C17.5625 593.453 13.8594 591.922 10.5 591.922H2.84375V614ZM6.8125 600.812V595.5H10.5625C12.4531 595.5 13.9219 596.375 13.9219 598.094C13.9219 600.266 12.4219 600.812 10.875 600.812H6.8125ZM6.8125 610.219V604.234H11.3594C13.4375 604.234 14.75 605.578 14.75 607.156C14.75 609.234 13.5625 610.219 11.5156 610.219H6.8125ZM28.8594 614.312C33.6875 614.312 36.8594 610.578 36.8594 606.156C36.8594 601.75 33.6875 598.062 28.8594 598.062C24.0312 598.062 20.8594 601.75 20.8594 606.156C20.8594 610.578 24.0312 614.312 28.8594 614.312ZM28.8594 611.031C25.9844 611.031 24.8281 608.719 24.8281 606.156C24.8281 603.594 25.9844 601.359 28.8594 601.359C31.75 601.359 32.8906 603.594 32.8906 606.156C32.8906 608.719 31.75 611.031 28.8594 611.031ZM43.125 614.312C44.0312 614.312 45.1719 614.156 45.9688 614V610.797C45.5625 610.859 45.1406 610.891 44.9219 610.891C44.1562 610.891 43.6719 610.578 43.6719 609.844V591.922H39.8594V610.891C39.8594 613.641 41.3281 614.312 43.125 614.312ZM54.4062 614.312C56.125 614.312 57.8594 613.719 58.9375 612.234L59.1094 614H62.6562V591.922H58.7812V599.953C57.7031 598.609 55.9688 598.062 54.3438 598.062C50.0156 598.062 47.6406 601.875 47.6406 606.188C47.6406 610.547 50.0156 614.312 54.4062 614.312ZM55.3281 610.859C52.7031 610.859 51.5156 608.812 51.5156 606.188C51.5156 603.594 52.7031 601.516 55.3281 601.516C57.9531 601.516 59.1094 603.562 59.1094 606.188C59.1094 608.844 57.9531 610.859 55.3281 610.859ZM75.5312 614H88.9375V610.25H79.5V591.922H75.5312V614ZM98.1406 614.312C100.766 614.312 102.844 613.391 104.547 611.5L101.922 609.203C100.828 610.422 99.5781 610.859 98.1719 610.859C95.7188 610.859 94.5938 609.484 94.2656 607.438H104.984C105.062 607.219 105.125 606.578 105.125 605.938C105.125 602.453 103.359 598.062 97.8906 598.062C92.6094 598.062 90.2344 602.188 90.2344 606.25C90.2344 610.453 92.7656 614.312 98.1406 614.312ZM94.2656 604.688C94.625 602.734 95.6094 601.266 97.8594 601.266C99.5156 601.266 100.859 602.094 101.25 603.703C101.344 604.016 101.375 604.344 101.375 604.688H94.2656ZM116.266 611.312H112.969C112.266 611.312 110.672 611.312 110.672 609.938C110.672 609.547 110.797 609.141 111.219 608.844C112.156 609.312 113.266 609.578 114.484 609.578C117.969 609.578 120.812 607.375 120.812 603.922C120.812 602.953 120.594 602.047 120.172 601.234L122.453 599.406L120.5 596.969L118.109 599.016C117.109 598.422 115.891 598.062 114.484 598.062C110.891 598.062 108.109 600.406 108.109 603.797C108.109 604.984 108.453 606.062 109.047 606.953C107.688 607.797 107.125 609.062 107.125 610.312C107.125 612.047 108.172 613.156 109.188 613.797L107.047 614.641C106.891 615.031 106.797 615.5 106.797 616.078C106.797 619.625 110.609 621.172 114.734 621.172C119.594 621.172 121.875 619.062 121.875 615.922C121.875 612.203 118.703 611.312 116.266 611.312ZM114.547 601.078C116.203 601.078 117.141 602.312 117.141 603.859C117.141 605.391 116.203 606.547 114.547 606.547C112.844 606.547 111.922 605.391 111.922 603.859C111.922 602.312 112.844 601.078 114.547 601.078ZM114.484 618.25C110.344 618.25 110.344 616.562 110.344 616.016V615.656L111.688 614.516H114.734C116.297 614.516 118.219 614.516 118.219 616.234C118.219 617.688 116.844 618.25 114.484 618.25ZM130.688 598.062C127.609 598.062 125.625 599.438 124.125 601.484L127.047 603.594C127.719 602.453 128.922 601.391 130.719 601.391C133.203 601.391 133.891 602.375 133.969 604.688H129.734C126.234 604.688 123.516 605.812 123.516 609.203C123.516 612.469 125.984 614.312 129.188 614.312C130.969 614.312 133.047 613.531 134.062 611.922L134.297 614H137.438V604.531C137.438 600.719 134.938 598.062 130.688 598.062ZM129.953 611.094C128.25 611.094 127.422 610.359 127.422 609.328C127.422 608.344 128.219 607.438 129.953 607.438H133.984V607.562C133.75 609.406 132.297 611.094 129.953 611.094ZM147.641 614.312C150.734 614.312 153.172 612.594 154.203 609.688L150.734 608.375C150.328 609.844 149.141 610.859 147.609 610.859C144.953 610.859 143.953 608.594 143.953 606.219C143.953 603.891 144.984 601.516 147.609 601.516C149.172 601.516 150.328 602.578 150.734 604.078L154.359 602.672C153.172 599.562 150.703 598.062 147.609 598.062C142.516 598.062 140.078 602.125 140.078 606.219C140.078 610.359 142.547 614.312 147.641 614.312ZM157.641 620.719H161.797L170.719 598.391H166.531L162.531 609.234L158.594 598.391H154.406L160.516 613.578L157.641 620.719Z" fill="black"/>
<path d="M526.891 29H538.734L539.062 27.5312H528.75L533.516 6.92188H531.969L526.891 29ZM547.203 10.0156H548.75L549.469 6.92188H547.922L547.203 10.0156ZM542.859 29H544.328L547.906 13.3906H546.438L542.859 29ZM554.781 36.1875C559.203 36.1875 562.422 33.0781 563.469 28.4062L566.953 13.3906H565.453L564.5 17.4844C564.156 14.8906 562.219 13.1719 559.453 13.1719C555.328 13.1719 551.719 16.6719 550.719 20.9844C549.688 25.4844 551.75 29.1094 555.953 29.1094C558.672 29.1094 561.312 27.4688 562.828 24.8438L562.031 28.3125C561.109 32.2344 558.516 34.8594 554.922 34.8594C552.156 34.8594 550.516 33.3906 550.094 31.2812L548.812 32.0156C549.453 34.4688 551.406 36.1875 554.781 36.1875ZM556.422 27.7188C552.984 27.7188 551.328 24.8906 552.172 21.25C553.016 17.4844 556.125 14.5312 559.641 14.5312C563.062 14.5312 564.672 17.3438 563.812 20.9844C562.938 24.8125 559.906 27.7188 556.422 27.7188ZM569.25 29H570.75L572.844 19.8125C573.562 16.7031 575.875 14.5312 578.812 14.5312C581.656 14.5312 582.5 16.2969 581.766 19.375L579.562 29H581.062L583.375 19C584.078 15.5781 582.797 13.1719 579.266 13.1719C577.062 13.1719 575.016 14.25 573.656 16.2812L575.844 6.92188H574.328L569.25 29ZM591.062 29.2188C591.797 29.2188 592.562 29.1094 593.047 28.9688L593.234 27.5625C592.812 27.7031 592.109 27.875 591.422 27.875C589.594 27.875 588.938 26.8906 589.484 24.4531L591.766 14.6562H596.281L596.578 13.3906H592.047L593.406 7.53125L591.672 8.65625L590.594 13.3906H587.953L587.672 14.6562H590.281L588.016 24.5625C587.312 27.5781 588.344 29.2188 591.062 29.2188ZM606.266 29H607.797L612.891 6.92188H611.344L606.266 29ZM618.938 29.2188C619.672 29.2188 620.438 29.1094 620.922 28.9688L621.109 27.5625C620.688 27.7031 619.984 27.875 619.297 27.875C617.469 27.875 616.812 26.8906 617.359 24.4531L619.641 14.6562H624.156L624.453 13.3906H619.922L621.281 7.53125L619.547 8.65625L618.469 13.3906H615.828L615.547 14.6562H618.156L615.891 24.5625C615.188 27.5781 616.219 29.2188 618.938 29.2188ZM630.875 29.2188C633.609 29.2188 636.281 27.5625 637.812 24.8906L636.922 29H638.312L641.906 13.3906H640.391L639.438 17.4844C639.094 14.8906 637.156 13.1719 634.391 13.1719C630.266 13.1719 626.656 16.6719 625.625 21.0312C624.609 25.5938 626.672 29.2188 630.875 29.2188ZM631.328 27.8438C627.891 27.8438 626.234 25 627.094 21.3125C627.953 17.4844 631.062 14.5312 634.578 14.5312C638 14.5312 639.609 17.3438 638.734 21.0312C637.859 24.9219 634.812 27.8438 631.328 27.8438ZM646.844 29.2188C647.422 29.2188 648.141 29.125 648.828 28.9844L649.016 27.6875C648.5 27.7969 648 27.8594 647.594 27.8594C645.812 27.8594 646.078 26.7031 646.391 25.3438L650.641 6.92188H649.156L644.859 25.5938C644.391 27.6094 644.453 29.2188 646.844 29.2188ZM656.891 10.0156H658.438L659.156 6.92188H657.609L656.891 10.0156ZM652.547 29H654.016L657.594 13.3906H656.125L652.547 29ZM665.484 29.2188C668.25 29.2188 670.766 27.7344 672.312 25.0781L671.062 24.4531C669.891 26.5312 667.844 27.8438 665.625 27.8438C662.031 27.8438 661.062 24.7812 661.875 21.3594C662.688 17.8125 665.203 14.5312 668.844 14.5312C670.953 14.5312 672.375 15.75 672.719 17.8594L674.219 17.4062C673.688 14.7031 671.781 13.1719 668.984 13.1719C664.469 13.1719 661.359 17.0781 660.422 21.0781C659.375 25.6875 661.172 29.2188 665.484 29.2188Z" fill="black"/>
<path d="M526.891 94H538.734L539.062 92.5312H528.75L533.516 71.9219H531.969L526.891 94ZM547.203 75.0156H548.75L549.469 71.9219H547.922L547.203 75.0156ZM542.859 94H544.328L547.906 78.3906H546.438L542.859 94ZM554.781 101.188C559.203 101.188 562.422 98.0781 563.469 93.4062L566.953 78.3906H565.453L564.5 82.4844C564.156 79.8906 562.219 78.1719 559.453 78.1719C555.328 78.1719 551.719 81.6719 550.719 85.9844C549.688 90.4844 551.75 94.1094 555.953 94.1094C558.672 94.1094 561.312 92.4688 562.828 89.8438L562.031 93.3125C561.109 97.2344 558.516 99.8594 554.922 99.8594C552.156 99.8594 550.516 98.3906 550.094 96.2812L548.812 97.0156C549.453 99.4688 551.406 101.188 554.781 101.188ZM556.422 92.7188C552.984 92.7188 551.328 89.8906 552.172 86.25C553.016 82.4844 556.125 79.5312 559.641 79.5312C563.062 79.5312 564.672 82.3438 563.812 85.9844C562.938 89.8125 559.906 92.7188 556.422 92.7188ZM569.25 94H570.75L572.844 84.8125C573.562 81.7031 575.875 79.5312 578.812 79.5312C581.656 79.5312 582.5 81.2969 581.766 84.375L579.562 94H581.062L583.375 84C584.078 80.5781 582.797 78.1719 579.266 78.1719C577.062 78.1719 575.016 79.25 573.656 81.2812L575.844 71.9219H574.328L569.25 94ZM591.062 94.2188C591.797 94.2188 592.562 94.1094 593.047 93.9688L593.234 92.5625C592.812 92.7031 592.109 92.875 591.422 92.875C589.594 92.875 588.938 91.8906 589.484 89.4531L591.766 79.6562H596.281L596.578 78.3906H592.047L593.406 72.5312L591.672 73.6562L590.594 78.3906H587.953L587.672 79.6562H590.281L588.016 89.5625C587.312 92.5781 588.344 94.2188 591.062 94.2188ZM606.266 94H618.109L618.438 92.5312H608.125L612.891 71.9219H611.344L606.266 94ZM636.594 82.0156C636.594 79.9844 634.969 78.1719 631.641 78.1719C625.984 78.1719 622.469 83.4062 622.469 88.4688C622.469 92.0781 624.25 94.2188 628.172 94.2188C630.562 94.2188 632.438 93.4062 634.469 91.7344L633.594 90.7188C631.906 92.1406 630.344 92.8438 628.344 92.8438C625.359 92.8438 623.953 91.25 623.953 88.5C623.953 87.8594 624.016 87.2188 624.141 86.5781C630.047 86.5938 636.594 86.0625 636.594 82.0156ZM631.578 79.4531C633.891 79.4531 635.234 80.5781 635.234 82C635.234 85.2656 628.141 85.3281 624.453 85.3438C625.469 82.1094 628.031 79.4531 631.578 79.4531ZM642.969 101.188C647.391 101.188 650.609 98.0781 651.656 93.4062L655.141 78.3906H653.641L652.688 82.4844C652.344 79.8906 650.406 78.1719 647.641 78.1719C643.516 78.1719 639.906 81.6719 638.906 85.9844C637.875 90.4844 639.938 94.1094 644.141 94.1094C646.859 94.1094 649.5 92.4688 651.016 89.8438L650.219 93.3125C649.297 97.2344 646.703 99.8594 643.109 99.8594C640.344 99.8594 638.703 98.3906 638.281 96.2812L637 97.0156C637.641 99.4688 639.594 101.188 642.969 101.188ZM644.609 92.7188C641.172 92.7188 639.516 89.8906 640.359 86.25C641.203 82.4844 644.312 79.5312 647.828 79.5312C651.25 79.5312 652.859 82.3438 652 85.9844C651.125 89.8125 648.094 92.7188 644.609 92.7188ZM663.062 94.2188C665.797 94.2188 668.469 92.5625 670 89.8906L669.109 94H670.5L674.094 78.3906H672.578L671.625 82.4844C671.281 79.8906 669.344 78.1719 666.578 78.1719C662.453 78.1719 658.844 81.6719 657.812 86.0312C656.797 90.5938 658.859 94.2188 663.062 94.2188ZM663.516 92.8438C660.078 92.8438 658.422 90 659.281 86.3125C660.141 82.4844 663.25 79.5312 666.766 79.5312C670.188 79.5312 671.797 82.3438 670.922 86.0312C670.047 89.9219 667 92.8438 663.516 92.8438ZM681.984 94.2188C684.75 94.2188 687.266 92.7344 688.812 90.0781L687.562 89.4531C686.391 91.5312 684.344 92.8438 682.125 92.8438C678.531 92.8438 677.562 89.7812 678.375 86.3594C679.188 82.8125 681.703 79.5312 685.344 79.5312C687.453 79.5312 688.875 80.75 689.219 82.8594L690.719 82.4062C690.188 79.7031 688.281 78.1719 685.484 78.1719C680.969 78.1719 677.859 82.0781 676.922 86.0781C675.875 90.6875 677.672 94.2188 681.984 94.2188ZM692.438 100.672H694.078L707.656 78.3906H706.016L697.781 92.1094L694.969 78.3906H693.359L696.594 93.875L692.438 100.672ZM716.891 94H718.422L723.516 71.9219H721.969L716.891 94ZM729.562 94.2188C730.297 94.2188 731.062 94.1094 731.547 93.9688L731.734 92.5625C731.312 92.7031 730.609 92.875 729.922 92.875C728.094 92.875 727.438 91.8906 727.984 89.4531L730.266 79.6562H734.781L735.078 78.3906H730.547L731.906 72.5312L730.172 73.6562L729.094 78.3906H726.453L726.172 79.6562H728.781L726.516 89.5625C725.812 92.5781 726.844 94.2188 729.562 94.2188ZM741.5 94.2188C744.234 94.2188 746.906 92.5625 748.438 89.8906L747.547 94H748.938L752.531 78.3906H751.016L750.062 82.4844C749.719 79.8906 747.781 78.1719 745.016 78.1719C740.891 78.1719 737.281 81.6719 736.25 86.0312C735.234 90.5938 737.297 94.2188 741.5 94.2188ZM741.953 92.8438C738.516 92.8438 736.859 90 737.719 86.3125C738.578 82.4844 741.688 79.5312 745.203 79.5312C748.625 79.5312 750.234 82.3438 749.359 86.0312C748.484 89.9219 745.438 92.8438 741.953 92.8438ZM757.469 94.2188C758.047 94.2188 758.766 94.125 759.453 93.9844L759.641 92.6875C759.125 92.7969 758.625 92.8594 758.219 92.8594C756.438 92.8594 756.703 91.7031 757.016 90.3438L761.266 71.9219H759.781L755.484 90.5938C755.016 92.6094 755.078 94.2188 757.469 94.2188ZM767.516 75.0156H769.062L769.781 71.9219H768.234L767.516 75.0156ZM763.172 94H764.641L768.219 78.3906H766.75L763.172 94ZM776.109 94.2188C778.875 94.2188 781.391 92.7344 782.938 90.0781L781.688 89.4531C780.516 91.5312 778.469 92.8438 776.25 92.8438C772.656 92.8438 771.688 89.7812 772.5 86.3594C773.312 82.8125 775.828 79.5312 779.469 79.5312C781.578 79.5312 783 80.75 783.344 82.8594L784.844 82.4062C784.312 79.7031 782.406 78.1719 779.609 78.1719C775.094 78.1719 771.984 82.0781 771.047 86.0781C770 90.6875 771.797 94.2188 776.109 94.2188Z" fill="black"/>
<path d="M526.688 159H528.828L533.906 136.922H531.766L526.688 159ZM539.859 159.234C540.672 159.234 541.531 159.109 542.047 158.953L542.344 157C541.906 157.172 541.125 157.406 540.375 157.406C538.781 157.406 538.156 156.578 538.656 154.375L540.797 145.141H545.172L545.562 143.391H541.203L542.594 137.359L540.188 138.875L539.172 143.391H536.547L536.141 145.141H538.734L536.578 154.547C535.891 157.531 537.031 159.234 539.859 159.234ZM551.797 159.234C554.266 159.234 556.703 157.875 558.219 155.516L557.484 159H559.406L563 143.391H560.891L560.062 146.891C559.625 144.594 557.766 143.141 555.25 143.141C551.109 143.141 547.625 146.688 546.609 150.984C545.594 155.547 547.531 159.234 551.797 159.234ZM552.469 157.359C549.25 157.359 547.859 154.75 548.641 151.375C549.453 147.797 552.234 145.031 555.547 145.031C558.734 145.031 560.109 147.609 559.297 150.984C558.484 154.609 555.766 157.359 552.469 157.359ZM567.75 159.234C568.375 159.234 569.203 159.141 569.938 159L570.203 157.203C569.719 157.297 569.234 157.375 568.844 157.375C567.344 157.375 567.453 156.453 567.734 155.25L571.969 136.922H569.906L565.578 155.625C565.078 157.828 565.469 159.234 567.75 159.234ZM577.75 140.125H579.906L580.641 136.922H578.484L577.75 140.125ZM573.438 159H575.5L579.078 143.391H577.031L573.438 159ZM586.797 159.234C589.625 159.234 592.188 157.734 593.781 155.016L592.047 154.141C590.984 156.078 589.078 157.359 586.984 157.359C583.656 157.359 582.828 154.516 583.562 151.422C584.312 148.125 586.641 145.031 590.047 145.031C592 145.031 593.281 146.172 593.547 148.125L595.625 147.516C595.125 144.719 593.156 143.141 590.25 143.141C585.609 143.141 582.484 147.047 581.547 151.031C580.516 155.562 582.266 159.234 586.797 159.234Z" fill="black"/>
<path d="M526.688 224H538.922L539.391 221.969H529.281L533.906 201.922H531.766L526.688 224ZM557.344 212.156C557.344 210.047 555.656 208.141 552.219 208.141C546.562 208.141 542.906 213.25 542.906 218.375C542.906 221.984 544.734 224.234 548.812 224.234C551.219 224.234 553.172 223.438 555.234 221.719L554.031 220.297C552.438 221.656 550.922 222.359 549.016 222.359C546.234 222.359 544.984 220.891 544.984 218.375C544.984 217.859 545.031 217.344 545.109 216.828C551.266 216.844 557.344 216.125 557.344 212.156ZM552.141 209.906C554.156 209.906 555.469 210.828 555.469 212.125C555.469 215.062 548.922 215.125 545.547 215.141C546.547 212.266 548.875 209.906 552.141 209.906ZM563.469 231.266C567.922 231.266 571.125 228.312 572.203 223.594L575.719 208.391H573.641L572.797 211.891C572.359 209.594 570.5 208.141 567.984 208.141C563.844 208.141 560.359 211.688 559.375 215.906C558.359 220.391 560.297 224.078 564.562 224.078C567 224.078 569.391 222.75 570.891 220.453L570.188 223.438C569.312 227.156 566.953 229.438 563.688 229.438C561.109 229.438 559.609 228.109 559.188 226.25L557.422 227.266C558.141 229.578 560.047 231.266 563.469 231.266ZM565.25 222.156C562.031 222.156 560.625 219.578 561.391 216.281C562.188 212.797 564.969 210.031 568.281 210.031C571.469 210.031 572.828 212.609 572.062 215.906C571.25 219.453 568.547 222.156 565.25 222.156ZM583.266 224.234C585.734 224.234 588.172 222.875 589.688 220.516L588.953 224H590.875L594.469 208.391H592.359L591.531 211.891C591.094 209.594 589.234 208.141 586.719 208.141C582.578 208.141 579.094 211.688 578.078 215.984C577.062 220.547 579 224.234 583.266 224.234ZM583.938 222.359C580.719 222.359 579.328 219.75 580.109 216.375C580.922 212.797 583.703 210.031 587.016 210.031C590.203 210.031 591.578 212.609 590.766 215.984C589.953 219.609 587.234 222.359 583.938 222.359ZM602.172 224.234C605 224.234 607.562 222.734 609.156 220.016L607.422 219.141C606.359 221.078 604.453 222.359 602.359 222.359C599.031 222.359 598.203 219.516 598.938 216.422C599.688 213.125 602.016 210.031 605.422 210.031C607.375 210.031 608.656 211.172 608.922 213.125L611 212.516C610.5 209.719 608.531 208.141 605.625 208.141C600.984 208.141 597.859 212.047 596.922 216.031C595.891 220.562 597.641 224.234 602.172 224.234ZM612.109 230.688H614.391L628.094 208.391H625.797L617.984 221.391L615.531 208.391H613.281L616.359 223.812L612.109 230.688ZM636.75 224H638.891L643.969 201.922H641.828L636.75 224ZM649.922 224.234C650.734 224.234 651.594 224.109 652.109 223.953L652.406 222C651.969 222.172 651.188 222.406 650.438 222.406C648.844 222.406 648.219 221.578 648.719 219.375L650.859 210.141H655.234L655.625 208.391H651.266L652.656 202.359L650.25 203.875L649.234 208.391H646.609L646.203 210.141H648.797L646.641 219.547C645.953 222.531 647.094 224.234 649.922 224.234ZM661.859 224.234C664.328 224.234 666.766 222.875 668.281 220.516L667.547 224H669.469L673.062 208.391H670.953L670.125 211.891C669.688 209.594 667.828 208.141 665.312 208.141C661.172 208.141 657.688 211.688 656.672 215.984C655.656 220.547 657.594 224.234 661.859 224.234ZM662.531 222.359C659.312 222.359 657.922 219.75 658.703 216.375C659.516 212.797 662.297 210.031 665.609 210.031C668.797 210.031 670.172 212.609 669.359 215.984C668.547 219.609 665.828 222.359 662.531 222.359ZM677.812 224.234C678.438 224.234 679.266 224.141 680 224L680.266 222.203C679.781 222.297 679.297 222.375 678.906 222.375C677.406 222.375 677.516 221.453 677.797 220.25L682.031 201.922H679.969L675.641 220.625C675.141 222.828 675.531 224.234 677.812 224.234ZM687.812 205.125H689.969L690.703 201.922H688.547L687.812 205.125ZM683.5 224H685.562L689.141 208.391H687.094L683.5 224ZM696.859 224.234C699.688 224.234 702.25 222.734 703.844 220.016L702.109 219.141C701.047 221.078 699.141 222.359 697.047 222.359C693.719 222.359 692.891 219.516 693.625 216.422C694.375 213.125 696.703 210.031 700.109 210.031C702.062 210.031 703.344 211.172 703.609 213.125L705.688 212.516C705.188 209.719 703.219 208.141 700.312 208.141C695.672 208.141 692.547 212.047 691.609 216.031C690.578 220.562 692.328 224.234 696.859 224.234Z" fill="black"/>
<path d="M549.078 266.922L538.219 284.078L535.297 266.922H531.562L526.469 289H529.109L533.406 270.406L536.297 287.156H538.969L549.297 270.875L545.125 289H547.766L552.859 266.922H549.078ZM568.609 277.297C568.609 275.109 566.875 273.125 563.312 273.125C557.672 273.125 553.875 278.094 553.875 283.266C553.875 286.891 555.734 289.266 559.969 289.266C562.406 289.266 564.453 288.469 566.547 286.688L565 284.891C563.5 286.188 562.031 286.859 560.219 286.859C557.641 286.859 556.547 285.547 556.547 283.234C556.547 282.859 556.578 282.484 556.625 282.094C563.031 282.109 568.609 281.188 568.609 277.297ZM563.234 275.359C564.938 275.359 566.219 276.078 566.219 277.25C566.219 279.828 560.25 279.906 557.172 279.938C558.172 277.406 560.281 275.359 563.234 275.359ZM575.469 289.266C577.656 289.266 579.891 288.203 581.359 286.125L580.781 289H583.266L588.344 266.922H585.656L583.453 276.281C582.906 274.312 581.125 273.125 578.875 273.125C574.703 273.125 571.344 276.688 570.344 280.938C569.328 285.484 571.141 289.266 575.469 289.266ZM576.359 286.859C573.375 286.859 572.234 284.484 572.953 281.422C573.688 278.125 576.141 275.531 579.266 275.531C582.234 275.531 583.344 277.875 582.625 280.938C581.859 284.312 579.469 286.859 576.359 286.859ZM592.766 270.234H595.531L596.297 266.922H593.516L592.766 270.234ZM588.5 289H591.141L594.719 273.391H592.078L588.5 289ZM601.438 289.266C603.266 289.266 605.25 288.484 606.734 286.703L606.172 289H608.797L612.375 273.391H609.75L607.719 282.281C607.031 285.219 605 286.812 602.438 286.812C600.156 286.812 599.328 285.312 599.938 282.734L602.078 273.391H599.453L597.25 283C596.516 286.328 597.578 289.266 601.438 289.266ZM614 289H616.641L618.688 280.078C619.25 277.578 621.297 275.594 623.797 275.594C626.078 275.594 626.594 277.141 626.031 279.609L623.859 289H626.516L628.547 280.078C629.125 277.578 631.156 275.594 633.641 275.594C636 275.594 636.453 277.219 635.797 280.016L633.734 289H636.375L638.469 279.906C639.328 276.141 638.312 273.125 634.438 273.125C632.328 273.125 630.266 274.031 628.672 276.344C628.438 274.156 626.766 273.125 624.594 273.125C622.719 273.125 620.906 273.828 619.562 275.734L620.125 273.391H617.562L614 289ZM649.844 289H652.594L657.688 266.922H654.938L649.844 289ZM663.516 289.266C664.422 289.266 665.375 289.125 665.922 288.938L666.344 286.438C665.859 286.641 665 286.922 664.219 286.922C662.844 286.922 662.25 286.281 662.688 284.312L664.703 275.625H668.922L669.438 273.391H665.219L666.641 267.172L663.594 269.078L662.609 273.391H660L659.484 275.625H662.062L660.016 284.547C659.344 287.469 660.594 289.266 663.516 289.266ZM675.469 289.266C677.656 289.266 679.891 288.203 681.359 286.125L680.781 289H683.266L686.844 273.391H684.141L683.453 276.281C682.906 274.312 681.125 273.125 678.875 273.125C674.703 273.125 671.344 276.688 670.344 280.938C669.328 285.484 671.141 289.266 675.469 289.266ZM676.359 286.859C673.375 286.859 672.234 284.484 672.953 281.422C673.688 278.125 676.141 275.531 679.266 275.531C682.234 275.531 683.344 277.875 682.625 280.938C681.859 284.312 679.469 286.859 676.359 286.859ZM691.422 289.266C692.109 289.266 693.047 289.156 693.828 289.016L694.188 286.734C693.703 286.812 693.25 286.875 692.891 286.875C691.656 286.875 691.609 286.219 691.844 285.172L696.078 266.922H693.422L689.094 285.656C688.547 288.047 689.281 289.266 691.422 289.266ZM701.391 270.234H704.156L704.922 266.922H702.141L701.391 270.234ZM697.125 289H699.766L703.344 273.391H700.703L697.125 289ZM710.891 289.266C713.781 289.266 716.406 287.734 718.031 284.953L715.812 283.828C714.859 285.609 713.078 286.859 711.141 286.859C708.078 286.859 707.375 284.266 708.047 281.469C708.734 278.422 710.859 275.531 714.031 275.531C715.828 275.531 716.969 276.578 717.172 278.391L719.828 277.625C719.328 274.719 717.297 273.125 714.297 273.125C709.547 273.125 706.391 277.016 705.453 280.984C704.438 285.438 706.156 289.266 710.891 289.266Z" fill="black"/>
<path d="M549.078 331.922L538.219 349.078L535.297 331.922H531.562L526.469 354H529.109L533.406 335.406L536.297 352.156H538.969L549.297 335.875L545.125 354H547.766L552.859 331.922H549.078ZM568.609 342.297C568.609 340.109 566.875 338.125 563.312 338.125C557.672 338.125 553.875 343.094 553.875 348.266C553.875 351.891 555.734 354.266 559.969 354.266C562.406 354.266 564.453 353.469 566.547 351.688L565 349.891C563.5 351.188 562.031 351.859 560.219 351.859C557.641 351.859 556.547 350.547 556.547 348.234C556.547 347.859 556.578 347.484 556.625 347.094C563.031 347.109 568.609 346.188 568.609 342.297ZM563.234 340.359C564.938 340.359 566.219 341.078 566.219 342.25C566.219 344.828 560.25 344.906 557.172 344.938C558.172 342.406 560.281 340.359 563.234 340.359ZM575.469 354.266C577.656 354.266 579.891 353.203 581.359 351.125L580.781 354H583.266L588.344 331.922H585.656L583.453 341.281C582.906 339.312 581.125 338.125 578.875 338.125C574.703 338.125 571.344 341.688 570.344 345.938C569.328 350.484 571.141 354.266 575.469 354.266ZM576.359 351.859C573.375 351.859 572.234 349.484 572.953 346.422C573.688 343.125 576.141 340.531 579.266 340.531C582.234 340.531 583.344 342.875 582.625 345.938C581.859 349.312 579.469 351.859 576.359 351.859ZM592.766 335.234H595.531L596.297 331.922H593.516L592.766 335.234ZM588.5 354H591.141L594.719 338.391H592.078L588.5 354ZM601.438 354.266C603.266 354.266 605.25 353.484 606.734 351.703L606.172 354H608.797L612.375 338.391H609.75L607.719 347.281C607.031 350.219 605 351.812 602.438 351.812C600.156 351.812 599.328 350.312 599.938 347.734L602.078 338.391H599.453L597.25 348C596.516 351.328 597.578 354.266 601.438 354.266ZM614 354H616.641L618.688 345.078C619.25 342.578 621.297 340.594 623.797 340.594C626.078 340.594 626.594 342.141 626.031 344.609L623.859 354H626.516L628.547 345.078C629.125 342.578 631.156 340.594 633.641 340.594C636 340.594 636.453 342.219 635.797 345.016L633.734 354H636.375L638.469 344.906C639.328 341.141 638.312 338.125 634.438 338.125C632.328 338.125 630.266 339.031 628.672 341.344C628.438 339.156 626.766 338.125 624.594 338.125C622.719 338.125 620.906 338.828 619.562 340.734L620.125 338.391H617.562L614 354ZM649.844 354H662.469L663.078 351.391H653.203L657.688 331.922H654.938L649.844 354ZM680.828 342.297C680.828 340.109 679.094 338.125 675.531 338.125C669.891 338.125 666.094 343.094 666.094 348.266C666.094 351.891 667.953 354.266 672.188 354.266C674.625 354.266 676.672 353.469 678.766 351.688L677.219 349.891C675.719 351.188 674.25 351.859 672.438 351.859C669.859 351.859 668.766 350.547 668.766 348.234C668.766 347.859 668.797 347.484 668.844 347.094C675.25 347.109 680.828 346.188 680.828 342.297ZM675.453 340.359C677.156 340.359 678.438 341.078 678.438 342.25C678.438 344.828 672.469 344.906 669.391 344.938C670.391 342.406 672.5 340.359 675.453 340.359ZM686.703 361.344C691.188 361.344 694.359 358.562 695.453 353.781L699.016 338.391H696.344L695.641 341.281C695.094 339.312 693.312 338.125 691.047 338.125C686.891 338.125 683.531 341.688 682.578 345.828C681.547 350.281 683.359 354.047 687.703 354.047C689.844 354.047 692.016 353.031 693.469 351.047L692.859 353.578C692.047 357.078 689.906 359.016 686.984 359.016C684.594 359.016 683.219 357.828 682.812 356.234L680.562 357.516C681.375 359.703 683.234 361.344 686.703 361.344ZM688.609 351.594C685.625 351.594 684.469 349.281 685.156 346.312C685.875 343.125 688.328 340.531 691.453 340.531C694.422 340.531 695.531 342.875 694.844 345.828C694.094 349.094 691.719 351.594 688.609 351.594ZM706.188 354.266C708.375 354.266 710.609 353.203 712.078 351.125L711.5 354H713.984L717.562 338.391H714.859L714.172 341.281C713.625 339.312 711.844 338.125 709.594 338.125C705.422 338.125 702.062 341.688 701.062 345.938C700.047 350.484 701.859 354.266 706.188 354.266ZM707.078 351.859C704.094 351.859 702.953 349.484 703.672 346.422C704.406 343.125 706.859 340.531 709.984 340.531C712.953 340.531 714.062 342.875 713.344 345.938C712.578 349.312 710.188 351.859 707.078 351.859ZM725.109 354.266C728 354.266 730.625 352.734 732.25 349.953L730.031 348.828C729.078 350.609 727.297 351.859 725.359 351.859C722.297 351.859 721.594 349.266 722.266 346.469C722.953 343.422 725.078 340.531 728.25 340.531C730.047 340.531 731.188 341.578 731.391 343.391L734.047 342.625C733.547 339.719 731.516 338.125 728.516 338.125C723.766 338.125 720.609 342.016 719.672 345.984C718.656 350.438 720.375 354.266 725.109 354.266ZM734.484 360.703H737.422L751.234 338.391H748.297L740.922 350.672L738.797 338.391H735.938L738.844 353.734L734.484 360.703ZM759.312 354H762.062L767.156 331.922H764.406L759.312 354ZM772.984 354.266C773.891 354.266 774.844 354.125 775.391 353.938L775.812 351.438C775.328 351.641 774.469 351.922 773.688 351.922C772.312 351.922 771.719 351.281 772.156 349.312L774.172 340.625H778.391L778.906 338.391H774.688L776.109 332.172L773.062 334.078L772.078 338.391H769.469L768.953 340.625H771.531L769.484 349.547C768.812 352.469 770.062 354.266 772.984 354.266ZM784.938 354.266C787.125 354.266 789.359 353.203 790.828 351.125L790.25 354H792.734L796.312 338.391H793.609L792.922 341.281C792.375 339.312 790.594 338.125 788.344 338.125C784.172 338.125 780.812 341.688 779.812 345.938C778.797 350.484 780.609 354.266 784.938 354.266ZM785.828 351.859C782.844 351.859 781.703 349.484 782.422 346.422C783.156 343.125 785.609 340.531 788.734 340.531C791.703 340.531 792.812 342.875 792.094 345.938C791.328 349.312 788.938 351.859 785.828 351.859ZM800.891 354.266C801.578 354.266 802.516 354.156 803.297 354.016L803.656 351.734C803.172 351.812 802.719 351.875 802.359 351.875C801.125 351.875 801.078 351.219 801.312 350.172L805.547 331.922H802.891L798.562 350.656C798.016 353.047 798.75 354.266 800.891 354.266ZM810.859 335.234H813.625L814.391 331.922H811.609L810.859 335.234ZM806.594 354H809.234L812.812 338.391H810.172L806.594 354ZM820.359 354.266C823.25 354.266 825.875 352.734 827.5 349.953L825.281 348.828C824.328 350.609 822.547 351.859 820.609 351.859C817.547 351.859 816.844 349.266 817.516 346.469C818.203 343.422 820.328 340.531 823.5 340.531C825.297 340.531 826.438 341.578 826.641 343.391L829.297 342.625C828.797 339.719 826.766 338.125 823.766 338.125C819.016 338.125 815.859 342.016 814.922 345.984C813.906 350.438 815.625 354.266 820.359 354.266Z" fill="black"/>
<path d="M532.812 419.234C537.453 419.234 541.453 416.156 541.453 411.922C541.453 405.797 532.641 406.766 532.641 402.938C532.641 401.172 534.359 399.609 536.531 399.609C538.109 399.609 539.516 400.359 540 401.969L543.062 400.531C542.125 397.812 539.703 396.625 536.906 396.625C532.719 396.625 529.281 399.438 529.281 403.266C529.281 409.25 538.031 408.125 538.031 412.406C538.031 414.594 535.891 416.25 533.141 416.25C530.469 416.25 529.031 414.797 529.062 412.188L525.625 412.75C525.359 416.969 528.781 419.234 532.812 419.234ZM558.672 407.438C558.672 405.172 556.891 403.094 553.203 403.094C547.562 403.094 543.641 407.922 543.641 413.156C543.641 416.797 545.531 419.297 549.906 419.297C552.375 419.297 554.5 418.5 556.625 416.656L554.75 414.484C553.344 415.719 551.922 416.359 550.203 416.359C547.844 416.359 546.891 415.188 546.891 413.094C546.891 412.844 546.906 412.594 546.922 412.344C553.547 412.359 558.672 411.266 558.672 407.438ZM553.109 405.812C554.516 405.812 555.766 406.328 555.766 407.391C555.766 409.609 550.375 409.703 547.609 409.734C548.578 407.562 550.469 405.812 553.109 405.812ZM559.547 419H562.781L564.75 410.328C565.281 408.047 567.188 406.109 569.516 406.109C571.594 406.109 571.938 407.562 571.438 409.75L569.297 419H572.531L574.5 410.328C575.031 408.047 576.938 406.109 579.25 406.109C581.375 406.109 581.672 407.625 581.125 409.969L579.047 419H582.281L584.375 409.844C585.188 406.312 584.203 403.094 580.234 403.094C578.281 403.094 576.297 403.844 574.609 406.078C574.25 404.031 572.531 403.094 570.516 403.094C568.828 403.094 567.109 403.641 565.719 405.453L566.234 403.391H563.109L559.547 419ZM590.938 400.328H594.328L595.109 396.922H591.719L590.938 400.328ZM586.703 419H589.922L593.516 403.391H590.297L586.703 419ZM595.391 419H603.656C607.516 419 611.188 416.875 612.078 413C612.688 410.438 611.609 408.016 609.672 407.375C611.297 406.641 612.844 405 613.312 403.078C614.328 398.641 611.203 396.922 607.719 396.922H600.484L595.391 419ZM601.719 406.078L603.141 399.953H607.234C609.453 399.953 610.719 400.828 610.297 402.672C609.734 405.141 607.844 406.078 606.094 406.078H601.719ZM599.484 415.797L601.047 408.984H606.094C608.375 408.984 609.422 410.312 609.016 412.031C608.422 414.531 606.703 415.797 604.281 415.797H599.484ZM621.359 419.297C625.984 419.297 629.859 415.734 630.859 411.453C631.922 406.859 629.531 403.094 624.75 403.094C620.125 403.094 616.266 406.594 615.297 410.859C614.234 415.469 616.578 419.297 621.359 419.297ZM621.672 416.5C618.703 416.5 617.891 414.156 618.516 411.453C619.203 408.438 621.328 405.891 624.453 405.891C627.422 405.891 628.266 408.172 627.641 410.859C626.938 413.891 624.797 416.5 621.672 416.5ZM635.688 419.297C636.438 419.297 637.484 419.172 638.297 419.016L638.75 416.25C638.297 416.328 637.859 416.391 637.516 416.391C636.562 416.391 636.359 415.969 636.562 415.078L640.766 396.922H637.547L633.203 415.703C632.609 418.266 633.672 419.297 635.688 419.297ZM647.062 419.297C648.969 419.297 650.984 418.516 652.422 416.75L652 419H655.016L660.109 396.922H656.828L654.75 405.688C654.078 404.031 652.375 403.094 650.391 403.094C646.188 403.094 642.953 406.703 641.984 410.891C640.953 415.438 642.656 419.297 647.062 419.297ZM648.156 416.359C645.406 416.359 644.516 414.234 645.156 411.484C645.828 408.438 647.969 406.031 650.891 406.031C653.641 406.031 654.5 408.141 653.844 410.891C653.156 414 651.062 416.359 648.156 416.359ZM668.422 419H671.781L676.875 396.922H673.516L668.422 419ZM682.594 419.297C683.578 419.297 684.625 419.125 685.203 418.922L685.734 415.875C685.219 416.109 684.297 416.438 683.453 416.438C682.328 416.438 681.75 415.969 682.141 414.234L684.016 406.109H688.078L688.703 403.391H684.641L686.109 396.984L682.391 399.297L681.469 403.391H678.875L678.25 406.109H680.797L678.859 414.531C678.203 417.422 679.562 419.297 682.594 419.297ZM694.594 419.297C696.5 419.297 698.516 418.516 699.953 416.75L699.531 419H702.547L706.125 403.391H702.828L702.281 405.688C701.609 404.031 699.906 403.094 697.922 403.094C693.719 403.094 690.484 406.703 689.516 410.891C688.484 415.438 690.188 419.297 694.594 419.297ZM695.688 416.359C692.938 416.359 692.047 414.234 692.688 411.484C693.359 408.438 695.5 406.031 698.422 406.031C701.172 406.031 702.031 408.141 701.375 410.891C700.688 414 698.594 416.359 695.688 416.359ZM710.531 419.297C711.281 419.297 712.328 419.172 713.141 419.016L713.594 416.25C713.141 416.328 712.703 416.391 712.359 416.391C711.406 416.391 711.203 415.969 711.406 415.078L715.609 396.922H712.391L708.047 415.703C707.453 418.266 708.516 419.297 710.531 419.297ZM720.469 400.328H723.859L724.641 396.922H721.25L720.469 400.328ZM716.234 419H719.453L723.047 403.391H719.828L716.234 419ZM730.438 419.297C733.391 419.297 736.047 417.75 737.703 414.906L735.016 413.516C734.172 415.141 732.516 416.359 730.734 416.359C727.922 416.359 727.359 414.016 727.953 411.516C728.578 408.734 730.516 406.031 733.453 406.031C735.094 406.031 736.094 407 736.234 408.656L739.453 407.719C738.969 404.719 736.891 403.094 733.781 403.094C728.906 403.094 725.734 407 724.797 410.922C723.797 415.312 725.469 419.297 730.438 419.297Z" fill="black"/>
<path d="M532.812 484.234C537.453 484.234 541.453 481.156 541.453 476.922C541.453 470.797 532.641 471.766 532.641 467.938C532.641 466.172 534.359 464.609 536.531 464.609C538.109 464.609 539.516 465.359 540 466.969L543.062 465.531C542.125 462.812 539.703 461.625 536.906 461.625C532.719 461.625 529.281 464.438 529.281 468.266C529.281 474.25 538.031 473.125 538.031 477.406C538.031 479.594 535.891 481.25 533.141 481.25C530.469 481.25 529.031 479.797 529.062 477.188L525.625 477.75C525.359 481.969 528.781 484.234 532.812 484.234ZM558.672 472.438C558.672 470.172 556.891 468.094 553.203 468.094C547.562 468.094 543.641 472.922 543.641 478.156C543.641 481.797 545.531 484.297 549.906 484.297C552.375 484.297 554.5 483.5 556.625 481.656L554.75 479.484C553.344 480.719 551.922 481.359 550.203 481.359C547.844 481.359 546.891 480.188 546.891 478.094C546.891 477.844 546.906 477.594 546.922 477.344C553.547 477.359 558.672 476.266 558.672 472.438ZM553.109 470.812C554.516 470.812 555.766 471.328 555.766 472.391C555.766 474.609 550.375 474.703 547.609 474.734C548.578 472.562 550.469 470.812 553.109 470.812ZM559.547 484H562.781L564.75 475.328C565.281 473.047 567.188 471.109 569.516 471.109C571.594 471.109 571.938 472.562 571.438 474.75L569.297 484H572.531L574.5 475.328C575.031 473.047 576.938 471.109 579.25 471.109C581.375 471.109 581.672 472.625 581.125 474.969L579.047 484H582.281L584.375 474.844C585.188 471.312 584.203 468.094 580.234 468.094C578.281 468.094 576.297 468.844 574.609 471.078C574.25 469.031 572.531 468.094 570.516 468.094C568.828 468.094 567.109 468.641 565.719 470.453L566.234 468.391H563.109L559.547 484ZM590.938 465.328H594.328L595.109 461.922H591.719L590.938 465.328ZM586.703 484H589.922L593.516 468.391H590.297L586.703 484ZM595.391 484H603.656C607.516 484 611.188 481.875 612.078 478C612.688 475.438 611.609 473.016 609.672 472.375C611.297 471.641 612.844 470 613.312 468.078C614.328 463.641 611.203 461.922 607.719 461.922H600.484L595.391 484ZM601.719 471.078L603.141 464.953H607.234C609.453 464.953 610.719 465.828 610.297 467.672C609.734 470.141 607.844 471.078 606.094 471.078H601.719ZM599.484 480.797L601.047 473.984H606.094C608.375 473.984 609.422 475.312 609.016 477.031C608.422 479.531 606.703 480.797 604.281 480.797H599.484ZM621.359 484.297C625.984 484.297 629.859 480.734 630.859 476.453C631.922 471.859 629.531 468.094 624.75 468.094C620.125 468.094 616.266 471.594 615.297 475.859C614.234 480.469 616.578 484.297 621.359 484.297ZM621.672 481.5C618.703 481.5 617.891 479.156 618.516 476.453C619.203 473.438 621.328 470.891 624.453 470.891C627.422 470.891 628.266 473.172 627.641 475.859C626.938 478.891 624.797 481.5 621.672 481.5ZM635.688 484.297C636.438 484.297 637.484 484.172 638.297 484.016L638.75 481.25C638.297 481.328 637.859 481.391 637.516 481.391C636.562 481.391 636.359 480.969 636.562 480.078L640.766 461.922H637.547L633.203 480.703C632.609 483.266 633.672 484.297 635.688 484.297ZM647.062 484.297C648.969 484.297 650.984 483.516 652.422 481.75L652 484H655.016L660.109 461.922H656.828L654.75 470.688C654.078 469.031 652.375 468.094 650.391 468.094C646.188 468.094 642.953 471.703 641.984 475.891C640.953 480.438 642.656 484.297 647.062 484.297ZM648.156 481.359C645.406 481.359 644.516 479.234 645.156 476.484C645.828 473.438 647.969 471.031 650.891 471.031C653.641 471.031 654.5 473.141 653.844 475.891C653.156 479 651.062 481.359 648.156 481.359ZM668.422 484H681.438L682.172 480.828H672.516L676.875 461.922H673.516L668.422 484ZM699.766 472.438C699.766 470.172 697.984 468.094 694.297 468.094C688.656 468.094 684.734 472.922 684.734 478.156C684.734 481.797 686.625 484.297 691 484.297C693.469 484.297 695.594 483.5 697.719 481.656L695.844 479.484C694.438 480.719 693.016 481.359 691.297 481.359C688.938 481.359 687.984 480.188 687.984 478.094C687.984 477.844 688 477.594 688.016 477.344C694.641 477.359 699.766 476.266 699.766 472.438ZM694.203 470.812C695.609 470.812 696.859 471.328 696.859 472.391C696.859 474.609 691.469 474.703 688.703 474.734C689.672 472.562 691.562 470.812 694.203 470.812ZM705.391 491.406C709.906 491.406 713.062 488.812 714.172 483.969L717.781 468.391H714.516L713.953 470.688C713.281 469.031 711.578 468.094 709.594 468.094C705.391 468.094 702.156 471.703 701.234 475.75C700.219 480.172 701.906 484.031 706.312 484.031C708.172 484.031 710.094 483.312 711.516 481.641L711 483.703C710.25 486.984 708.344 488.594 705.75 488.594C703.547 488.594 702.312 487.547 701.922 486.203L699.172 487.75C700.062 489.812 701.891 491.406 705.391 491.406ZM707.438 481.047C704.688 481.047 703.766 478.969 704.391 476.359C705.031 473.438 707.172 471.031 710.094 471.031C712.844 471.031 713.703 473.141 713.109 475.75C712.406 478.734 710.359 481.047 707.438 481.047ZM724.625 484.297C726.531 484.297 728.547 483.516 729.984 481.75L729.562 484H732.578L736.156 468.391H732.859L732.312 470.688C731.641 469.031 729.938 468.094 727.953 468.094C723.75 468.094 720.516 471.703 719.547 475.891C718.516 480.438 720.219 484.297 724.625 484.297ZM725.719 481.359C722.969 481.359 722.078 479.234 722.719 476.484C723.391 473.438 725.531 471.031 728.453 471.031C731.203 471.031 732.062 473.141 731.406 475.891C730.719 479 728.625 481.359 725.719 481.359ZM743.531 484.297C746.484 484.297 749.141 482.75 750.797 479.906L748.109 478.516C747.266 480.141 745.609 481.359 743.828 481.359C741.016 481.359 740.453 479.016 741.047 476.516C741.672 473.734 743.609 471.031 746.547 471.031C748.188 471.031 749.188 472 749.328 473.656L752.547 472.719C752.062 469.719 749.984 468.094 746.875 468.094C742 468.094 738.828 472 737.891 475.922C736.891 480.312 738.562 484.297 743.531 484.297ZM752.359 490.703H755.938L769.891 468.391H766.297L759.344 479.953L757.578 468.391H754.078L756.828 483.656L752.359 490.703ZM777.359 484H780.719L785.812 461.922H782.453L777.359 484ZM791.531 484.297C792.516 484.297 793.562 484.125 794.141 483.922L794.672 480.875C794.156 481.109 793.234 481.438 792.391 481.438C791.266 481.438 790.688 480.969 791.078 479.234L792.953 471.109H797.016L797.641 468.391H793.578L795.047 461.984L791.328 464.297L790.406 468.391H787.812L787.188 471.109H789.734L787.797 479.531C787.141 482.422 788.5 484.297 791.531 484.297ZM803.531 484.297C805.438 484.297 807.453 483.516 808.891 481.75L808.469 484H811.484L815.062 468.391H811.766L811.219 470.688C810.547 469.031 808.844 468.094 806.859 468.094C802.656 468.094 799.422 471.703 798.453 475.891C797.422 480.438 799.125 484.297 803.531 484.297ZM804.625 481.359C801.875 481.359 800.984 479.234 801.625 476.484C802.297 473.438 804.438 471.031 807.359 471.031C810.109 471.031 810.969 473.141 810.312 475.891C809.625 479 807.531 481.359 804.625 481.359ZM819.469 484.297C820.219 484.297 821.266 484.172 822.078 484.016L822.531 481.25C822.078 481.328 821.641 481.391 821.297 481.391C820.344 481.391 820.141 480.969 820.344 480.078L824.547 461.922H821.328L816.984 480.703C816.391 483.266 817.453 484.297 819.469 484.297ZM829.406 465.328H832.797L833.578 461.922H830.188L829.406 465.328ZM825.172 484H828.391L831.984 468.391H828.766L825.172 484ZM839.375 484.297C842.328 484.297 844.984 482.75 846.641 479.906L843.953 478.516C843.109 480.141 841.453 481.359 839.672 481.359C836.859 481.359 836.297 479.016 836.891 476.516C837.516 473.734 839.453 471.031 842.391 471.031C844.031 471.031 845.031 472 845.172 473.656L848.391 472.719C847.906 469.719 845.828 468.094 842.719 468.094C837.844 468.094 834.672 472 833.734 475.922C832.734 480.312 834.406 484.297 839.375 484.297Z" fill="black"/>
<path d="M526.062 549H534.766C538.5 549 542.344 546.859 543.234 542.953C543.812 540.547 542.766 538.062 541 537.359C542.5 536.609 543.969 535.047 544.422 533.219C545.484 528.609 542.062 526.922 538.703 526.922H531.141L526.062 549ZM533.062 535.812L534.281 530.5H538.125C540.016 530.5 541.219 531.203 540.875 532.75C540.328 535.109 538.562 535.812 537.031 535.812H533.062ZM530.891 545.219L532.266 539.234H536.906C538.984 539.234 539.938 540.422 539.625 541.797C539.078 544.078 537.547 545.219 535.5 545.219H530.891ZM552.266 549.312C557 549.312 560.875 545.734 561.859 541.516C562.922 536.906 560.516 533.062 555.594 533.062C550.859 533.062 546.984 536.578 546.016 540.812C544.969 545.422 547.328 549.312 552.266 549.312ZM552.609 546.031C549.828 546.031 549.281 543.875 549.828 541.516C550.438 538.766 552.266 536.359 555.234 536.359C558.016 536.359 558.594 538.438 558.047 540.812C557.406 543.562 555.594 546.031 552.609 546.031ZM566.5 549.312C567.297 549.312 568.453 549.188 569.312 549.031L569.859 545.766C569.406 545.828 568.984 545.891 568.672 545.891C568 545.891 567.641 545.734 567.812 545L572 526.922H568.188L563.844 545.734C563.203 548.484 564.609 549.312 566.5 549.312ZM577.828 549.312C579.469 549.312 581.25 548.844 582.656 547.375L582.406 549H585.953L591.047 526.922H587.172L585.219 535.078C584.453 533.734 582.828 533.062 581.094 533.062C576.875 533.062 573.766 536.719 572.812 540.844C571.781 545.391 573.344 549.312 577.828 549.312ZM579.141 545.859C576.609 545.859 575.969 543.969 576.547 541.547C577.156 538.766 578.984 536.516 581.703 536.516C584.234 536.516 584.844 538.406 584.266 540.844C583.625 543.688 581.859 545.859 579.141 545.859ZM598.844 549H602.812L607.891 526.922H603.922L598.844 549ZM613.516 549.312C614.578 549.312 615.719 549.125 616.328 548.906L616.969 545.312C616.422 545.578 615.438 545.953 614.547 545.953C613.641 545.953 613.094 545.672 613.422 544.172L615.188 536.578H619.078L619.828 533.391H615.922L617.422 526.797L613.031 529.516L612.172 533.391H609.578L608.844 536.578H611.375L609.547 544.516C608.906 547.375 610.375 549.312 613.516 549.312ZM625.516 549.312C627.156 549.312 628.938 548.844 630.344 547.375L630.094 549H633.641L637.234 533.391H633.328L632.906 535.078C632.141 533.734 630.516 533.062 628.781 533.062C624.562 533.062 621.453 536.719 620.5 540.844C619.469 545.391 621.031 549.312 625.516 549.312ZM626.828 545.859C624.297 545.859 623.656 543.969 624.234 541.547C624.844 538.766 626.672 536.516 629.391 536.516C631.922 536.516 632.531 538.406 631.953 540.844C631.312 543.688 629.547 545.859 626.828 545.859ZM641.469 549.312C642.266 549.312 643.422 549.188 644.281 549.031L644.828 545.766C644.375 545.828 643.953 545.891 643.641 545.891C642.969 545.891 642.609 545.734 642.781 545L646.969 526.922H643.156L638.812 545.734C638.172 548.484 639.578 549.312 641.469 549.312ZM651.359 530.438H655.359L656.156 526.922H652.156L651.359 530.438ZM647.172 549H650.969L654.562 533.391H650.75L647.172 549ZM661.781 549.312C664.797 549.312 667.516 547.75 669.203 544.844L666.047 543.203C665.297 544.688 663.766 545.859 662.141 545.859C659.578 545.859 659.156 543.75 659.672 541.578C660.25 539.047 661.969 536.516 664.703 536.516C666.172 536.516 667.031 537.422 667.094 538.922L670.906 537.828C670.422 534.734 668.281 533.062 665.078 533.062C660.094 533.062 656.891 536.969 655.953 540.875C654.969 545.188 656.594 549.312 661.781 549.312Z" fill="black"/>
<path d="M526.062 614H534.766C538.5 614 542.344 611.859 543.234 607.953C543.812 605.547 542.766 603.062 541 602.359C542.5 601.609 543.969 600.047 544.422 598.219C545.484 593.609 542.062 591.922 538.703 591.922H531.141L526.062 614ZM533.062 600.812L534.281 595.5H538.125C540.016 595.5 541.219 596.203 540.875 597.75C540.328 600.109 538.562 600.812 537.031 600.812H533.062ZM530.891 610.219L532.266 604.234H536.906C538.984 604.234 539.938 605.422 539.625 606.797C539.078 609.078 537.547 610.219 535.5 610.219H530.891ZM552.266 614.312C557 614.312 560.875 610.734 561.859 606.516C562.922 601.906 560.516 598.062 555.594 598.062C550.859 598.062 546.984 601.578 546.016 605.812C544.969 610.422 547.328 614.312 552.266 614.312ZM552.609 611.031C549.828 611.031 549.281 608.875 549.828 606.516C550.438 603.766 552.266 601.359 555.234 601.359C558.016 601.359 558.594 603.438 558.047 605.812C557.406 608.562 555.594 611.031 552.609 611.031ZM566.5 614.312C567.297 614.312 568.453 614.188 569.312 614.031L569.859 610.766C569.406 610.828 568.984 610.891 568.672 610.891C568 610.891 567.641 610.734 567.812 610L572 591.922H568.188L563.844 610.734C563.203 613.484 564.609 614.312 566.5 614.312ZM577.828 614.312C579.469 614.312 581.25 613.844 582.656 612.375L582.406 614H585.953L591.047 591.922H587.172L585.219 600.078C584.453 598.734 582.828 598.062 581.094 598.062C576.875 598.062 573.766 601.719 572.812 605.844C571.781 610.391 573.344 614.312 577.828 614.312ZM579.141 610.859C576.609 610.859 575.969 608.969 576.547 606.547C577.156 603.766 578.984 601.516 581.703 601.516C584.234 601.516 584.844 603.406 584.266 605.844C583.625 608.688 581.859 610.859 579.141 610.859ZM598.844 614H612.25L613.109 610.25H603.672L607.891 591.922H603.922L598.844 614ZM630.5 602.578C630.5 600.234 628.672 598.062 624.875 598.062C619.234 598.062 615.172 602.766 615.172 608.047C615.172 611.703 617.094 614.312 621.641 614.312C624.141 614.312 626.344 613.516 628.484 611.625L626.281 609.078C624.969 610.25 623.594 610.859 621.953 610.859C619.812 610.859 619.016 609.844 619.016 607.953C619.016 607.844 619.016 607.719 619.031 607.594C625.859 607.609 630.5 606.312 630.5 602.578ZM624.781 601.266C625.859 601.266 627.078 601.578 627.078 602.516C627.078 604.391 622.344 604.5 619.844 604.531C620.766 602.703 622.453 601.266 624.781 601.266ZM635.875 621.484C640.422 621.484 643.547 619.062 644.672 614.156L648.328 598.391H644.484L644.031 600.078C643.266 598.734 641.641 598.062 639.906 598.062C635.688 598.062 632.578 601.719 631.688 605.688C630.656 610.062 632.219 614 636.703 614C638.281 614 639.969 613.578 641.344 612.234L640.938 613.844C640.219 616.906 638.562 618.156 636.297 618.156C634.281 618.156 633.188 617.266 632.797 616.172L629.562 618C630.531 619.922 632.328 621.484 635.875 621.484ZM638.047 610.484C635.516 610.484 634.844 608.656 635.391 606.391C635.969 603.766 637.797 601.516 640.516 601.516C643.047 601.516 643.656 603.406 643.141 605.688C642.5 608.375 640.766 610.484 638.047 610.484ZM654.797 614.312C656.438 614.312 658.219 613.844 659.625 612.375L659.375 614H662.922L666.516 598.391H662.609L662.188 600.078C661.422 598.734 659.797 598.062 658.062 598.062C653.844 598.062 650.734 601.719 649.781 605.844C648.75 610.391 650.312 614.312 654.797 614.312ZM656.109 610.859C653.578 610.859 652.938 608.969 653.516 606.547C654.125 603.766 655.953 601.516 658.672 601.516C661.203 601.516 661.812 603.406 661.234 605.844C660.594 608.688 658.828 610.859 656.109 610.859ZM673.719 614.312C676.734 614.312 679.453 612.75 681.141 609.844L677.984 608.203C677.234 609.688 675.703 610.859 674.078 610.859C671.516 610.859 671.094 608.75 671.609 606.578C672.188 604.047 673.906 601.516 676.641 601.516C678.109 601.516 678.969 602.422 679.031 603.922L682.844 602.828C682.359 599.734 680.219 598.062 677.016 598.062C672.031 598.062 668.828 601.969 667.891 605.875C666.906 610.188 668.531 614.312 673.719 614.312ZM682 620.719H686.219L700.297 598.391H696.047L689.516 609.234L688.109 598.391H683.984L686.562 613.578L682 620.719ZM707.188 614H711.156L716.234 591.922H712.266L707.188 614ZM721.859 614.312C722.922 614.312 724.062 614.125 724.672 613.906L725.312 610.312C724.766 610.578 723.781 610.953 722.891 610.953C721.984 610.953 721.438 610.672 721.766 609.172L723.531 601.578H727.422L728.172 598.391H724.266L725.766 591.797L721.375 594.516L720.516 598.391H717.922L717.188 601.578H719.719L717.891 609.516C717.25 612.375 718.719 614.312 721.859 614.312ZM733.859 614.312C735.5 614.312 737.281 613.844 738.688 612.375L738.438 614H741.984L745.578 598.391H741.672L741.25 600.078C740.484 598.734 738.859 598.062 737.125 598.062C732.906 598.062 729.797 601.719 728.844 605.844C727.812 610.391 729.375 614.312 733.859 614.312ZM735.172 610.859C732.641 610.859 732 608.969 732.578 606.547C733.188 603.766 735.016 601.516 737.734 601.516C740.266 601.516 740.875 603.406 740.297 605.844C739.656 608.688 737.891 610.859 735.172 610.859ZM749.812 614.312C750.609 614.312 751.766 614.188 752.625 614.031L753.172 610.766C752.719 610.828 752.297 610.891 751.984 610.891C751.312 610.891 750.953 610.734 751.125 610L755.312 591.922H751.5L747.156 610.734C746.516 613.484 747.922 614.312 749.812 614.312ZM759.703 595.438H763.703L764.5 591.922H760.5L759.703 595.438ZM755.516 614H759.312L762.906 598.391H759.094L755.516 614ZM770.125 614.312C773.141 614.312 775.859 612.75 777.547 609.844L774.391 608.203C773.641 609.688 772.109 610.859 770.484 610.859C767.922 610.859 767.5 608.75 768.016 606.578C768.594 604.047 770.312 601.516 773.047 601.516C774.516 601.516 775.375 602.422 775.438 603.922L779.25 602.828C778.766 599.734 776.625 598.062 773.422 598.062C768.438 598.062 765.234 601.969 764.297 605.875C763.312 610.188 764.938 614.312 770.125 614.312Z" fill="black"/>
</svg>
