<svg width="1042" height="400" viewBox="0 0 1042 400" fill="none" xmlns="http://www.w3.org/2000/svg">
<circle cx="147.5" cy="199.5" r="82.5" stroke="#1B1B1B" stroke-width="2"/>
<circle cx="282.5" cy="199.5" r="82.5" stroke="#1B1B1B" stroke-width="2"/>
<circle cx="752.5" cy="199.5" r="82.5" stroke="#1B1B1B" stroke-width="2"/>
<circle cx="926.5" cy="199.5" r="82.5" stroke="#1B1B1B" stroke-width="2"/>
<circle cx="515.5" cy="199.5" r="135.5" stroke="#1B1B1B" stroke-width="2"/>
<circle cx="516" cy="200" r="56" stroke="#1B1B1B" stroke-width="2"/>
<line x1="4.12304e-10" y1="199" x2="1042" y2="199" stroke="#1B1B1B" stroke-width="2"/>
<line x1="282" y1="336" x2="282" y2="63" stroke="#1B1B1B" stroke-width="2"/>
<line x1="282" y1="336" x2="282" y2="63" stroke="#1B1B1B" stroke-width="2"/>
<line x1="282" y1="336" x2="282" y2="63" stroke="#1B1B1B" stroke-width="2"/>
<line x1="147" y1="336" x2="147" y2="63" stroke="#1B1B1B" stroke-width="2"/>
<line x1="147" y1="336" x2="147" y2="63" stroke="#1B1B1B" stroke-width="2"/>
<line x1="147" y1="336" x2="147" y2="63" stroke="#1B1B1B" stroke-width="2"/>
<line x1="752" y1="336" x2="752" y2="63" stroke="#1B1B1B" stroke-width="2"/>
<line x1="752" y1="336" x2="752" y2="63" stroke="#1B1B1B" stroke-width="2"/>
<line x1="752" y1="336" x2="752" y2="63" stroke="#1B1B1B" stroke-width="2"/>
<line x1="518" y1="400" x2="518" stroke="#1B1B1B" stroke-width="2"/>
<line x1="518" y1="400" x2="518" stroke="#1B1B1B" stroke-width="2"/>
<line x1="518" y1="400" x2="518" stroke="#1B1B1B" stroke-width="2"/>
</svg>
