<svg width="561" height="541" viewBox="0 0 561 541" fill="none" xmlns="http://www.w3.org/2000/svg">
<rect width="196.962" height="187.786" transform="matrix(0.945543 -0.325498 0.334162 0.942516 307.753 67.1107)" fill="#D9D9D9" fill-opacity="0.5"/>
<rect width="196.962" height="187.786" transform="matrix(0.945543 -0.325498 0.334162 0.942516 5.27588 67.1107)" fill="#D9D9D9" fill-opacity="0.5"/>
<rect x="254" y="177" width="306" height="296" fill="#404F94"/>
<rect x="71" y="245" width="306" height="296" fill="#404F94"/>
<line y1="-2" x2="198.259" y2="-2" transform="matrix(0.947347 -0.320208 0.328765 0.944412 2 67.5599)" stroke="#18B6CC" stroke-width="4"/>
<line x1="190" y1="2" x2="492" y2="2" stroke="#18B6CC" stroke-width="4"/>
<line x1="494" y1="4" x2="494" y2="301" stroke="#18B6CC" stroke-width="4"/>
<line x1="2" y1="66" x2="304" y2="66" stroke="#18B6CC" stroke-width="4"/>
<line y1="-2" x2="198.259" y2="-2" transform="matrix(0.947347 -0.320208 0.328765 0.944412 304.478 67.5599)" stroke="#18B6CC" stroke-width="4"/>
<line x1="192" y1="4" x2="192" y2="301" stroke="#18B6CC" stroke-width="4"/>
<line y1="-2" x2="187.486" y2="-2" transform="matrix(0.337811 0.941214 -0.944304 0.329075 189.82 301.052)" stroke="#18B6CC" stroke-width="4"/>
<line y1="-2" x2="188.499" y2="-2" transform="matrix(0.335995 0.941864 -0.944922 0.327295 189.82 4.07593)" stroke="#18B6CC" stroke-width="4"/>
<line x1="255" y1="182" x2="255" y2="478" stroke="#18B6CC" stroke-width="4"/>
<path d="M70.6322 246.738L251.516 181.078" stroke="#18B6CC" stroke-width="4"/>
<line x1="253" y1="180" x2="557" y2="180" stroke="#18B6CC" stroke-width="4"/>
<line y1="-2" x2="188.868" y2="-2" transform="matrix(0.341119 0.94002 -0.943167 0.332319 492.297 4.07593)" stroke="#18B6CC" stroke-width="4"/>
<line x1="559" y1="182" x2="559" y2="478" stroke="#18B6CC" stroke-width="4"/>
<line x1="4" y1="63" x2="4" y2="366" stroke="#18B6CC" stroke-width="4"/>
<line y1="-2" x2="195.429" y2="-2" transform="matrix(0.352018 0.935993 -0.939331 0.343012 2 67.5599)" stroke="#18B6CC" stroke-width="4"/>
<line y1="-2" x2="292.69" y2="-2" transform="matrix(0.0112338 0.999937 -0.999941 0.0109075 67.5186 247.252)" stroke="#18B6CC" stroke-width="4"/>
<line y1="-2" x2="184.206" y2="-2" transform="matrix(0.355682 0.934607 -0.93801 0.346607 2 367.764)" stroke="#18B6CC" stroke-width="4"/>
<line y1="-2" x2="200.046" y2="-2" transform="matrix(0.938882 -0.34424 0.35327 0.935521 2 369.916)" stroke="#18B6CC" stroke-width="4"/>
<line x1="190" y1="299" x2="492" y2="299" stroke="#18B6CC" stroke-width="4"/>
<line y1="-2" x2="299.233" y2="-2" transform="matrix(0.999897 -0.0143835 0.0148137 0.99989 5.27588 369.916)" stroke="#18B6CC" stroke-width="4"/>
<line y1="-2" x2="197.58" y2="-2" transform="matrix(-0.950601 0.310416 -0.318771 -0.947832 492.297 301.052)" stroke="#18B6CC" stroke-width="4"/>
<line y1="-2" x2="192.411" y2="-2" transform="matrix(0.35754 0.933898 -0.937334 0.348432 304.478 67.5599)" stroke="#18B6CC" stroke-width="4"/>
<line y1="-2" x2="194.811" y2="-2" transform="matrix(0.947299 -0.320352 0.328912 0.94436 69.7026 539.924)" stroke="#18B6CC" stroke-width="4"/>
<line x1="306" y1="68" x2="306" y2="362" stroke="#18B6CC" stroke-width="4"/>
<line x1="375" y1="247" x2="375" y2="540" stroke="#18B6CC" stroke-width="4"/>
<line y1="-2" x2="190.403" y2="-2" transform="matrix(0.361311 0.932445 -0.93595 0.352134 304.478 362.384)" stroke="#18B6CC" stroke-width="4"/>
<line y1="-2" x2="193.777" y2="-2" transform="matrix(0.946719 -0.322061 0.330657 0.943751 70.7944 539.924)" stroke="#18B6CC" stroke-width="4"/>
<line x1="254" y1="476" x2="557" y2="476" stroke="#18B6CC" stroke-width="4"/>
<line y1="-2" x2="193.777" y2="-2" transform="matrix(0.946719 -0.322061 0.330657 0.943751 373.272 539.924)" stroke="#18B6CC" stroke-width="4"/>
<line x1="70" y1="539" x2="375" y2="539" stroke="#18B6CC" stroke-width="4"/>
<line y1="-2" x2="186.055" y2="-2" transform="matrix(0.316931 0.948449 -0.951187 0.308614 492.297 301.052)" stroke="#18B6CC" stroke-width="4"/>
<line x1="71" y1="245" x2="373" y2="245" stroke="#18B6CC" stroke-width="4"/>
<line y1="-2" x2="194.84" y2="-2" transform="matrix(0.941551 -0.336871 0.345759 0.938323 373.272 247.252)" stroke="#18B6CC" stroke-width="4"/>
<line x1="190" y1="2" x2="492" y2="2" stroke="#18B6CC" stroke-width="4"/>
<rect width="196.962" height="187.786" transform="matrix(0.945543 -0.325498 0.334162 0.942516 307.753 362.595)" fill="#D9D9D9" fill-opacity="0.5"/>
<rect width="196.962" height="187.786" transform="matrix(0.945543 -0.325498 0.334162 0.942516 5.27588 363.011)" fill="#D9D9D9" fill-opacity="0.5"/>
</svg>
