<svg width="1512" height="792" viewBox="0 0 1512 792" fill="none" xmlns="http://www.w3.org/2000/svg">
<rect x="-1" y="31" width="1513" height="729" fill="#FEFBEC"/>
<path d="M1386.45 200.541L1340.31 285.342L1293.69 200.806L1386.45 200.541Z" stroke="black" stroke-width="2"/>
<path d="M1479.45 200.275L1433.31 285.076L1386.69 200.54L1479.45 200.275Z" stroke="black" stroke-width="2"/>
<path d="M1432.2 115.41L1386.07 200.211L1339.45 115.675L1432.2 115.41Z" stroke="black" stroke-width="2"/>
<path d="M1385.96 30.5418L1339.83 115.342L1293.21 30.8068L1385.96 30.5418Z" stroke="black" stroke-width="2"/>
<path d="M1478.96 30.2759L1432.83 115.076L1386.21 30.541L1478.96 30.2759Z" stroke="black" stroke-width="2"/>
<path d="M1292.96 30.8072L1246.83 115.608L1200.21 31.0722L1292.96 30.8072Z" stroke="black" stroke-width="2"/>
<path d="M1199.96 31.0731L1153.83 115.874L1107.21 31.3381L1199.96 31.0731Z" stroke="black" stroke-width="2"/>
<path d="M1153.21 116.207L1107.07 201.008L1060.45 116.472L1153.21 116.207Z" stroke="black" stroke-width="2"/>
<path d="M1200.45 201.073L1154.31 285.873L1107.7 201.338L1200.45 201.073Z" stroke="black" stroke-width="2"/>
<path d="M1154.93 284.703L1201.07 199.902L1247.69 284.438L1154.93 284.703Z" stroke="black" stroke-width="2"/>
<path d="M1060.93 284.971L1107.07 200.171L1153.69 284.706L1060.93 284.971Z" stroke="black" stroke-width="2"/>
<path d="M1340.2 115.673L1294.07 200.473L1247.45 115.938L1340.2 115.673Z" stroke="black" stroke-width="2"/>
<path d="M1247.2 115.939L1201.07 200.739L1154.45 116.204L1247.2 115.939Z" stroke="black" stroke-width="2"/>
<path d="M1340.69 285.672L1294.56 370.473L1247.94 285.937L1340.69 285.672Z" stroke="black" stroke-width="2"/>
<path d="M1432.45 113.909L1478.58 29.1086L1525.2 113.644L1432.45 113.909Z" stroke="black" stroke-width="2"/>
<path d="M1294.45 200.804L1248.31 285.605L1201.69 201.069L1294.45 200.804Z" stroke="black" stroke-width="2"/>
<path d="M1202.18 371.568L1248.32 286.768L1294.93 371.303L1202.18 371.568Z" stroke="black" stroke-width="2"/>
<path d="M1294.18 371.306L1340.32 286.505L1386.93 371.041L1294.18 371.306Z" stroke="black" stroke-width="2"/>
<path d="M1106.96 31.3392L1060.83 116.14L1014.21 31.6042L1106.96 31.3392Z" stroke="black" stroke-width="2"/>
<path d="M165.124 591.75L211.5 507.082L257.876 591.75H165.124Z" stroke="black" stroke-width="2"/>
<path d="M72.1235 591.75L118.5 507.082L164.876 591.75H72.1235Z" stroke="black" stroke-width="2"/>
<path d="M119.124 676.75L165.5 592.082L211.876 676.75H119.124Z" stroke="black" stroke-width="2"/>
<path d="M165.124 761.75L211.5 677.082L257.876 761.75H165.124Z" stroke="black" stroke-width="2"/>
<path d="M72.1235 761.75L118.5 677.082L164.876 761.75H72.1235Z" stroke="black" stroke-width="2"/>
<path d="M258.124 761.75L304.5 677.082L350.876 761.75H258.124Z" stroke="black" stroke-width="2"/>
<path d="M351.124 761.75L397.5 677.082L443.876 761.75H351.124Z" stroke="black" stroke-width="2"/>
<path d="M398.124 676.75L444.5 592.082L490.876 676.75H398.124Z" stroke="black" stroke-width="2"/>
<path d="M351.124 591.75L397.5 507.082L443.876 591.75H351.124Z" stroke="black" stroke-width="2"/>
<path d="M396.876 508.25L350.5 592.918L304.124 508.25H396.876Z" stroke="black" stroke-width="2"/>
<path d="M490.876 508.25L444.5 592.918L398.124 508.25H490.876Z" stroke="black" stroke-width="2"/>
<path d="M211.124 676.75L257.5 592.082L303.876 676.75H211.124Z" stroke="black" stroke-width="2"/>
<path d="M304.124 676.75L350.5 592.082L396.876 676.75H304.124Z" stroke="black" stroke-width="2"/>
<path d="M211.124 506.75L257.5 422.082L303.876 506.75H211.124Z" stroke="black" stroke-width="2"/>
<path d="M118.876 678.25L72.5 762.918L26.1235 678.25H118.876Z" stroke="black" stroke-width="2"/>
<path d="M257.124 591.75L303.5 507.082L349.876 591.75H257.124Z" stroke="black" stroke-width="2"/>
<path d="M349.876 421.25L303.5 505.918L257.124 421.25L349.876 421.25Z" stroke="black" stroke-width="2"/>
<path d="M257.876 421.25L211.5 505.918L165.124 421.25L257.876 421.25Z" stroke="black" stroke-width="2"/>
<path d="M444.124 761.75L490.5 677.082L536.876 761.75H444.124Z" stroke="black" stroke-width="2"/>
<path d="M494.08 391L503.744 345.304H526.912L525.888 350.36H508.352L499.776 391H494.08ZM539.407 391.64C536.761 391.64 534.5 391.128 532.623 390.104C530.788 389.037 529.38 387.544 528.399 385.624C527.46 383.661 526.991 381.357 526.991 378.712C526.991 375.981 527.375 373.293 528.143 370.648C528.953 367.96 530.105 365.528 531.599 363.352C533.092 361.133 534.884 359.363 536.975 358.04C539.108 356.717 541.497 356.056 544.143 356.056C547.385 356.056 549.817 356.76 551.439 358.168C553.103 359.576 553.935 361.539 553.935 364.056C553.935 365.72 553.551 367.299 552.783 368.792C552.015 370.243 550.82 371.523 549.199 372.632C547.577 373.741 545.508 374.616 542.991 375.256C540.473 375.853 537.444 376.152 533.903 376.152H532.815C532.772 376.536 532.729 376.941 532.687 377.368C532.687 377.795 532.687 378.179 532.687 378.52C532.687 381.123 533.327 383.192 534.607 384.728C535.887 386.221 537.828 386.968 540.431 386.968C542.052 386.968 543.588 386.733 545.039 386.264C546.489 385.795 548.068 385.155 549.775 384.344V389.144C548.153 389.869 546.553 390.467 544.975 390.936C543.439 391.405 541.583 391.64 539.407 391.64ZM534.095 371.608C536.655 371.608 539.023 371.395 541.199 370.968C543.375 370.499 545.124 369.752 546.447 368.728C547.769 367.661 548.431 366.253 548.431 364.504C548.431 363.395 548.047 362.499 547.279 361.816C546.553 361.091 545.401 360.728 543.823 360.728C542.457 360.728 541.113 361.155 539.791 362.008C538.468 362.861 537.273 364.099 536.207 365.72C535.14 367.341 534.287 369.304 533.647 371.608H534.095ZM578.128 391.512C575.483 391.512 573.2 390.979 571.28 389.912C569.36 388.845 567.888 387.331 566.864 385.368C565.84 383.363 565.328 381.016 565.328 378.328C565.328 376.237 565.563 374.147 566.032 372.056C566.502 369.923 567.184 367.917 568.08 366.04C569.019 364.163 570.171 362.499 571.536 361.048C572.902 359.555 574.502 358.381 576.336 357.528C578.171 356.675 580.219 356.248 582.48 356.248C585.168 356.248 587.451 356.781 589.328 357.848C591.248 358.915 592.72 360.451 593.744 362.456C594.768 364.419 595.28 366.765 595.28 369.496C595.28 371.587 595.046 373.677 594.576 375.768C594.107 377.859 593.403 379.864 592.464 381.784C591.568 383.661 590.438 385.325 589.072 386.776C587.707 388.227 586.107 389.379 584.272 390.232C582.438 391.085 580.39 391.512 578.128 391.512ZM578.448 386.84C579.686 386.84 580.838 386.584 581.904 386.072C583.014 385.56 584.038 384.813 584.976 383.832C585.915 382.808 586.704 381.571 587.344 380.12C588.027 378.627 588.56 376.941 588.944 375.064C589.328 373.187 589.52 371.117 589.52 368.856C589.52 367.576 589.286 366.339 588.816 365.144C588.39 363.907 587.664 362.904 586.64 362.136C585.616 361.325 584.251 360.92 582.544 360.92C581.136 360.92 579.835 361.219 578.64 361.816C577.446 362.413 576.379 363.267 575.44 364.376C574.502 365.443 573.691 366.723 573.008 368.216C572.368 369.667 571.878 371.267 571.536 373.016C571.195 374.765 571.024 376.6 571.024 378.52C571.024 381.165 571.664 383.213 572.944 384.664C574.267 386.115 576.102 386.84 578.448 386.84ZM606.575 391L613.807 356.76H621.103L624.687 383.96H624.815L639.855 356.76H647.727L640.559 391H635.439L639.599 371.352C639.983 369.731 640.367 368.109 640.751 366.488C641.177 364.867 641.561 363.373 641.903 362.008H641.775L625.647 391H621.231L617.327 362.072H617.135C616.964 363.267 616.729 364.739 616.431 366.488C616.132 368.195 615.812 369.859 615.471 371.48L611.503 391H606.575ZM671.357 391.64C668.711 391.64 666.45 391.128 664.573 390.104C662.738 389.037 661.33 387.544 660.349 385.624C659.41 383.661 658.941 381.357 658.941 378.712C658.941 375.981 659.325 373.293 660.093 370.648C660.903 367.96 662.055 365.528 663.549 363.352C665.042 361.133 666.834 359.363 668.925 358.04C671.058 356.717 673.447 356.056 676.093 356.056C679.335 356.056 681.767 356.76 683.389 358.168C685.053 359.576 685.885 361.539 685.885 364.056C685.885 365.72 685.501 367.299 684.733 368.792C683.965 370.243 682.77 371.523 681.149 372.632C679.527 373.741 677.458 374.616 674.941 375.256C672.423 375.853 669.394 376.152 665.853 376.152H664.765C664.722 376.536 664.679 376.941 664.637 377.368C664.637 377.795 664.637 378.179 664.637 378.52C664.637 381.123 665.277 383.192 666.557 384.728C667.837 386.221 669.778 386.968 672.381 386.968C674.002 386.968 675.538 386.733 676.989 386.264C678.439 385.795 680.018 385.155 681.725 384.344V389.144C680.103 389.869 678.503 390.467 676.925 390.936C675.389 391.405 673.533 391.64 671.357 391.64ZM666.045 371.608C668.605 371.608 670.973 371.395 673.149 370.968C675.325 370.499 677.074 369.752 678.397 368.728C679.719 367.661 680.381 366.253 680.381 364.504C680.381 363.395 679.997 362.499 679.229 361.816C678.503 361.091 677.351 360.728 675.773 360.728C674.407 360.728 673.063 361.155 671.741 362.008C670.418 362.861 669.223 364.099 668.157 365.72C667.09 367.341 666.237 369.304 665.597 371.608H666.045ZM695.998 391L703.294 356.696H707.902L707.198 363.032H707.518C708.286 361.965 709.182 360.899 710.206 359.832C711.273 358.765 712.489 357.869 713.854 357.144C715.262 356.419 716.841 356.056 718.59 356.056C720.937 356.056 722.729 356.739 723.966 358.104C725.246 359.427 726.014 361.283 726.27 363.672H726.526C727.38 362.392 728.382 361.176 729.534 360.024C730.729 358.872 732.052 357.933 733.502 357.208C734.953 356.44 736.553 356.056 738.302 356.056C740.948 356.056 742.996 356.781 744.446 358.232C745.897 359.683 746.622 361.773 746.622 364.504C746.622 365.528 746.558 366.488 746.43 367.384C746.302 368.237 746.132 369.155 745.918 370.136L741.502 391H735.806L740.414 369.496C740.628 368.515 740.777 367.683 740.862 367C740.948 366.317 740.99 365.656 740.99 365.016C740.99 363.736 740.628 362.712 739.902 361.944C739.22 361.176 738.132 360.792 736.638 360.792C735.614 360.792 734.526 361.091 733.374 361.688C732.222 362.243 731.092 363.117 729.982 364.312C728.873 365.507 727.87 367.043 726.974 368.92C726.078 370.755 725.353 372.952 724.798 375.512L721.534 391H715.902L720.446 369.496C720.66 368.515 720.809 367.704 720.894 367.064C720.98 366.381 721.022 365.784 721.022 365.272C721.022 363.864 720.702 362.776 720.062 362.008C719.422 361.197 718.356 360.792 716.862 360.792C715.838 360.792 714.729 361.069 713.534 361.624C712.382 362.179 711.252 363.075 710.142 364.312C709.033 365.507 708.009 367.085 707.07 369.048C706.132 371.011 705.364 373.4 704.766 376.216L701.63 391H695.998ZM755.198 406.36L765.694 356.696H770.302L769.534 363.096H769.79C770.814 361.816 771.902 360.664 773.054 359.64C774.206 358.573 775.465 357.72 776.83 357.08C778.196 356.44 779.668 356.12 781.246 356.12C783.081 356.12 784.681 356.568 786.046 357.464C787.454 358.317 788.542 359.619 789.31 361.368C790.121 363.075 790.526 365.229 790.526 367.832C790.526 370.349 790.27 372.781 789.758 375.128C789.289 377.475 788.564 379.651 787.582 381.656C786.644 383.619 785.492 385.368 784.126 386.904C782.804 388.397 781.268 389.571 779.518 390.424C777.769 391.235 775.87 391.64 773.822 391.64C772.286 391.64 770.942 391.363 769.79 390.808C768.681 390.253 767.742 389.528 766.974 388.632C766.206 387.736 765.566 386.776 765.054 385.752H764.734C764.692 386.435 764.585 387.395 764.414 388.632C764.244 389.827 764.073 390.808 763.902 391.576L760.766 406.36H755.198ZM773.374 386.968C774.74 386.968 775.998 386.627 777.15 385.944C778.345 385.219 779.412 384.237 780.35 383C781.289 381.72 782.078 380.269 782.718 378.648C783.401 376.984 783.913 375.235 784.254 373.4C784.596 371.523 784.766 369.624 784.766 367.704C784.766 365.4 784.297 363.672 783.358 362.52C782.462 361.368 781.118 360.792 779.326 360.792C778.388 360.792 777.428 361.027 776.446 361.496C775.465 361.965 774.505 362.648 773.566 363.544C772.628 364.397 771.753 365.421 770.942 366.616C770.132 367.811 769.406 369.133 768.766 370.584C768.169 371.992 767.7 373.507 767.358 375.128C767.017 376.707 766.846 378.349 766.846 380.056C766.846 382.104 767.38 383.768 768.446 385.048C769.513 386.328 771.156 386.968 773.374 386.968ZM812.165 391.64C810.458 391.64 808.943 391.32 807.621 390.68C806.341 390.04 805.338 389.08 804.613 387.8C803.93 386.52 803.589 384.963 803.589 383.128C803.589 382.147 803.653 381.229 803.781 380.376C803.951 379.48 804.122 378.563 804.293 377.624L808.773 356.696H814.469L809.861 378.264C809.69 379.203 809.541 380.013 809.413 380.696C809.327 381.379 809.285 381.997 809.285 382.552C809.285 383.917 809.626 385.005 810.309 385.816C811.034 386.584 812.186 386.968 813.765 386.968C815.215 386.968 816.773 386.456 818.437 385.432C820.143 384.408 821.722 382.765 823.173 380.504C824.623 378.243 825.754 375.235 826.565 371.48L829.701 356.696H835.269L827.973 391H823.365L824.069 384.664H823.749C822.938 385.688 821.978 386.755 820.869 387.864C819.802 388.931 818.543 389.827 817.093 390.552C815.685 391.277 814.042 391.64 812.165 391.64ZM866.443 381.336C866.742 379.843 867.083 378.392 867.467 376.984C867.894 375.576 868.257 374.339 868.555 373.272H868.299C867.446 374.424 866.465 375.448 865.355 376.344C864.246 377.197 863.009 377.88 861.643 378.392C860.321 378.904 858.849 379.16 857.227 379.16C855.307 379.16 853.686 378.84 852.363 378.2C851.083 377.517 850.102 376.515 849.419 375.192C848.779 373.869 848.459 372.269 848.459 370.392C848.459 369.581 848.545 368.664 848.715 367.64C848.886 366.616 849.057 365.592 849.227 364.568L850.891 356.696H856.587L854.859 365.016C854.603 366.125 854.411 367.064 854.283 367.832C854.198 368.557 854.155 369.24 854.155 369.88C854.155 371.587 854.561 372.781 855.371 373.464C856.225 374.104 857.377 374.424 858.827 374.424C860.321 374.424 861.835 374.019 863.371 373.208C864.95 372.397 866.422 370.968 867.787 368.92C869.153 366.872 870.241 363.992 871.051 360.28L871.819 356.696H877.451L870.155 391H864.395L866.443 381.336ZM887.473 391L894.769 356.696H900.337L897.393 370.968H913.521L916.593 356.696H922.225L914.993 391H909.297L912.497 375.64H896.369L893.105 391H887.473ZM945.623 391.64C943.361 391.64 941.377 391.299 939.671 390.616C938.007 389.891 936.727 388.803 935.831 387.352C934.935 385.859 934.487 384.003 934.487 381.784C934.487 380.931 934.551 379.949 934.679 378.84C934.849 377.731 935.02 376.707 935.191 375.768L939.223 356.696H944.919L941.719 371.608C942.743 371.395 943.831 371.224 944.983 371.096C946.177 370.925 947.372 370.84 948.567 370.84C950.871 370.84 952.791 371.203 954.327 371.928C955.905 372.611 957.079 373.635 957.847 375C958.615 376.323 958.999 377.944 958.999 379.864C958.999 381.997 958.508 383.96 957.527 385.752C956.588 387.544 955.137 388.973 953.175 390.04C951.212 391.107 948.695 391.64 945.623 391.64ZM945.943 387.032C947.265 387.032 948.396 386.861 949.335 386.52C950.273 386.136 951.041 385.645 951.639 385.048C952.236 384.408 952.684 383.704 952.983 382.936C953.281 382.125 953.431 381.272 953.431 380.376C953.431 379.139 953.175 378.157 952.663 377.432C952.193 376.707 951.468 376.195 950.487 375.896C949.548 375.597 948.375 375.448 946.967 375.448C945.9 375.448 944.833 375.512 943.767 375.64C942.743 375.725 941.74 375.875 940.759 376.088C940.503 377.325 940.311 378.349 940.183 379.16C940.097 379.928 940.055 380.632 940.055 381.272C940.055 383.107 940.503 384.536 941.399 385.56C942.337 386.541 943.852 387.032 945.943 387.032ZM962.391 391L969.623 356.696H975.255L967.959 391H962.391ZM1006.52 352.216C1004.13 352.216 1002.19 351.896 1000.7 351.256C999.204 350.573 998.116 349.656 997.433 348.504C996.751 347.352 996.409 346.008 996.409 344.472C996.409 344.088 996.431 343.704 996.473 343.32C996.559 342.893 996.623 342.573 996.665 342.36H1001.59C1001.55 342.701 1001.51 343.021 1001.47 343.32C1001.42 343.576 1001.4 343.853 1001.4 344.152C1001.4 345.347 1001.81 346.328 1002.62 347.096C1003.47 347.821 1004.88 348.184 1006.84 348.184C1008.85 348.184 1010.49 347.8 1011.77 347.032C1013.09 346.221 1013.97 344.664 1014.39 342.36H1019.77C1019.39 344.365 1018.68 346.115 1017.66 347.608C1016.63 349.059 1015.2 350.189 1013.37 351C1011.58 351.811 1009.29 352.216 1006.52 352.216ZM995.577 391.64C993.871 391.64 992.356 391.32 991.033 390.68C989.753 390.04 988.751 389.08 988.025 387.8C987.343 386.52 987.001 384.963 987.001 383.128C987.001 382.147 987.065 381.229 987.193 380.376C987.364 379.48 987.535 378.563 987.705 377.624L992.185 356.696H997.881L993.273 378.264C993.103 379.203 992.953 380.013 992.825 380.696C992.74 381.379 992.697 381.997 992.697 382.552C992.697 383.917 993.039 385.005 993.721 385.816C994.447 386.584 995.599 386.968 997.177 386.968C998.628 386.968 1000.19 386.456 1001.85 385.432C1003.56 384.408 1005.13 382.765 1006.59 380.504C1008.04 378.243 1009.17 375.235 1009.98 371.48L1013.11 356.696H1018.68L1011.39 391H1006.78L1007.48 384.664H1007.16C1006.35 385.688 1005.39 386.755 1004.28 387.864C1003.21 388.931 1001.96 389.827 1000.51 390.552C999.097 391.277 997.455 391.64 995.577 391.64Z" fill="black"/>
<path d="M1025.12 506.75L1071.5 422.082L1117.88 506.75H1025.12Z" stroke="black" stroke-width="2"/>
<path d="M1071.12 591.75L1117.5 507.082L1163.88 591.75H1071.12Z" stroke="black" stroke-width="2"/>
<path d="M978.124 591.75L1024.5 507.082L1070.88 591.75H978.124Z" stroke="black" stroke-width="2"/>
<path d="M1025.12 676.75L1071.5 592.082L1117.88 676.75H1025.12Z" stroke="black" stroke-width="2"/>
<path d="M1071.12 761.75L1117.5 677.082L1163.88 761.75H1071.12Z" stroke="black" stroke-width="2"/>
<path d="M1163.12 761.75L1209.5 677.082L1255.88 761.75H1163.12Z" stroke="black" stroke-width="2"/>
<path d="M1257.12 761.75L1303.5 677.082L1349.88 761.75H1257.12Z" stroke="black" stroke-width="2"/>
<path d="M1304.12 676.75L1350.5 592.082L1396.88 676.75H1304.12Z" stroke="black" stroke-width="2"/>
<path d="M1257.12 591.75L1303.5 507.082L1349.88 591.75H1257.12Z" stroke="black" stroke-width="2"/>
<path d="M1302.88 508.25L1256.5 592.918L1210.12 508.25H1302.88Z" stroke="black" stroke-width="2"/>
<path d="M1117.12 676.75L1163.5 592.082L1209.88 676.75H1117.12Z" stroke="black" stroke-width="2"/>
<path d="M1210.12 676.75L1256.5 592.082L1302.88 676.75H1210.12Z" stroke="black" stroke-width="2"/>
<path d="M1117.12 506.75L1163.5 422.082L1209.88 506.75H1117.12Z" stroke="black" stroke-width="2"/>
<path d="M1163.12 591.75L1209.5 507.082L1255.88 591.75H1163.12Z" stroke="black" stroke-width="2"/>
<path d="M1255.88 421.25L1209.5 505.918L1163.12 421.25L1255.88 421.25Z" stroke="black" stroke-width="2"/>
<path d="M1163.88 421.25L1117.5 505.918L1071.12 421.25L1163.88 421.25Z" stroke="black" stroke-width="2"/>
<path d="M1349.12 594.75L1395.5 510.082L1441.88 594.75H1349.12Z" stroke="black" stroke-width="2"/>
<path d="M17.1235 117.75L63.5 33.0816L109.876 117.75H17.1235Z" stroke="black" stroke-width="2"/>
<path d="M63.1235 202.75L109.5 118.082L155.876 202.75H63.1235Z" stroke="black" stroke-width="2"/>
<path d="M-29.8765 202.75L16.5 118.082L62.8765 202.75H-29.8765Z" stroke="black" stroke-width="2"/>
<path d="M17.1235 287.75L63.5 203.082L109.876 287.75H17.1235Z" stroke="black" stroke-width="2"/>
<path d="M63.1235 372.75L109.5 288.082L155.876 372.75H63.1235Z" stroke="black" stroke-width="2"/>
<path d="M155.124 372.75L201.5 288.082L247.876 372.75H155.124Z" stroke="black" stroke-width="2"/>
<path d="M249.124 372.75L295.5 288.082L341.876 372.75H249.124Z" stroke="black" stroke-width="2"/>
<path d="M296.124 287.75L342.5 203.082L388.876 287.75H296.124Z" stroke="black" stroke-width="2"/>
<path d="M249.124 202.75L295.5 118.082L341.876 202.75H249.124Z" stroke="black" stroke-width="2"/>
<path d="M294.876 119.25L248.5 203.918L202.124 119.25L294.876 119.25Z" stroke="black" stroke-width="2"/>
<path d="M109.124 287.75L155.5 203.082L201.876 287.75H109.124Z" stroke="black" stroke-width="2"/>
<path d="M202.124 287.75L248.5 203.082L294.876 287.75H202.124Z" stroke="black" stroke-width="2"/>
<path d="M109.124 117.75L155.5 33.0816L201.876 117.75H109.124Z" stroke="black" stroke-width="2"/>
<path d="M155.124 202.75L201.5 118.082L247.876 202.75H155.124Z" stroke="black" stroke-width="2"/>
<path d="M247.876 32.25L201.5 116.918L155.124 32.25L247.876 32.25Z" stroke="black" stroke-width="2"/>
<path d="M155.876 32.25L109.5 116.918L63.1235 32.25L155.876 32.25Z" stroke="black" stroke-width="2"/>
<path d="M341.124 205.75L387.5 121.082L433.876 205.75H341.124Z" stroke="black" stroke-width="2"/>
</svg>
