<svg width="1440" height="660" viewBox="0 0 1440 660" fill="none" xmlns="http://www.w3.org/2000/svg">
<rect width="1440" height="660" fill="#FEFBEC"/>
<path d="M949.953 460H956.859C961.109 460 963.844 457.906 963.844 453.984C963.844 451.047 962.203 448.891 959.609 448.359C961.406 447.688 962.781 445.828 962.781 443.516C962.781 439.672 960.141 437.922 956.328 437.922H949.953V460ZM951.5 447.859V439.328H956.344C959.578 439.328 961.344 440.766 961.344 443.578C961.344 446.25 959.469 447.859 957.094 447.859H951.5ZM951.5 458.531V449.219H957.688C960.609 449.219 962.328 451.016 962.328 453.828C962.328 456.938 960.469 458.531 956.875 458.531H951.5ZM981.544 460.219C988.325 460.219 991.512 454.969 991.512 448.953C991.512 442.938 988.325 437.703 981.544 437.703C974.809 437.703 971.606 442.938 971.606 448.953C971.606 454.969 974.809 460.219 981.544 460.219ZM981.544 458.828C975.778 458.828 973.231 454.312 973.231 448.953C973.231 443.609 975.778 439.094 981.544 439.094C987.341 439.094 989.903 443.609 989.903 448.953C989.903 454.312 987.341 458.828 981.544 458.828ZM1000.76 460H1012.62V458.531H1002.31V437.922H1000.76V460ZM1020.8 460H1026.58C1033.77 460 1037.8 456.047 1037.8 449.125C1037.8 441.938 1033.85 437.922 1026.62 437.922H1020.8V460ZM1022.35 458.578V439.344H1026.58C1033.04 439.344 1036.26 442.625 1036.26 449.062C1036.26 455.406 1032.66 458.578 1026.44 458.578H1022.35ZM1058.55 460H1070.41V458.531H1060.09V437.922H1058.55V460ZM1078.59 460H1092.93V458.531H1080.14V449.609H1091.54V448.188H1080.14V439.344H1092.93V437.922H1078.59V460ZM1110.13 460.219C1113.76 460.219 1116.32 458.609 1117.85 455.75L1117.96 460H1119.23V448.812H1112.18V450.094H1117.71L1117.68 453.234C1116.62 456.906 1114.04 458.812 1110.13 458.812C1104.32 458.812 1101.88 454.422 1101.88 448.859C1101.88 442.891 1104.74 439.062 1110.29 439.062C1114.02 439.062 1116.42 440.656 1117.68 444.125L1119.07 443.547C1117.51 439.641 1114.67 437.703 1110.31 437.703C1103.76 437.703 1100.35 442.188 1100.35 448.922C1100.35 455.625 1103.76 460.219 1110.13 460.219ZM1126.69 460H1128.4L1130.33 454.5H1140.49L1142.43 460H1144.08L1136.1 437.922H1134.69L1126.69 460ZM1130.82 453.156L1135.41 439.984L1140.01 453.156H1130.82ZM1159.88 460.219C1164.14 460.219 1167.13 458.188 1168.85 454.312L1167.41 453.734C1165.96 457.125 1163.55 458.734 1159.88 458.734C1154.07 458.734 1151.63 454.422 1151.63 448.859C1151.63 442.891 1154.49 439.172 1160.03 439.172C1163.8 439.172 1166.17 440.688 1167.36 444.125L1168.82 443.547C1167.27 439.641 1164.41 437.703 1160.05 437.703C1153.52 437.703 1150.1 442.188 1150.1 448.922C1150.1 455.625 1153.5 460.219 1159.88 460.219ZM1182.55 460H1184.14V451.625L1192.59 437.922H1190.72L1183.33 450.094L1175.97 437.922H1174.11L1182.55 451.625V460Z" fill="black"/>
<path d="M1124.54 397L1108.94 346H1030.94L1015.34 397H966.436L1042.04 181.9H1097.54L1173.44 397H1124.54ZM1082.54 258.1C1081.54 254.7 1080.24 250.4 1078.64 245.2C1077.04 240 1075.44 234.7 1073.84 229.3C1072.24 223.9 1070.94 219.2 1069.94 215.2C1068.94 219.2 1067.54 224.2 1065.74 230.2C1064.14 236 1062.54 241.6 1060.94 247C1059.54 252.2 1058.44 255.9 1057.64 258.1L1042.34 307.9H1098.14L1082.54 258.1Z" fill="black"/>
<path d="M888.121 301.121C889.293 299.95 889.293 298.05 888.121 296.879L869.029 277.787C867.858 276.615 865.958 276.615 864.787 277.787C863.615 278.958 863.615 280.858 864.787 282.029L881.757 299L864.787 315.971C863.615 317.142 863.615 319.042 864.787 320.213C865.958 321.385 867.858 321.385 869.029 320.213L888.121 301.121ZM536 302H886V296H536V302Z" fill="black"/>
<path d="M309.475 459H321.334V457.531H311.022V436.922H309.475V459ZM329.519 459H331.066V436.922H329.519V459ZM350.125 459.219C353.75 459.219 356.312 457.609 357.844 454.75L357.953 459H359.219V447.812H352.172V449.094H357.703L357.672 452.234C356.609 455.906 354.031 457.812 350.125 457.812C344.312 457.812 341.875 453.422 341.875 447.859C341.875 441.891 344.734 438.062 350.281 438.062C354.016 438.062 356.406 439.656 357.672 443.125L359.062 442.547C357.5 438.641 354.656 436.703 350.297 436.703C343.75 436.703 340.344 441.188 340.344 447.922C340.344 454.625 343.75 459.219 350.125 459.219ZM369.044 459H370.591V448.594H382.809V459H384.341V436.922H382.809V447.156H370.591V436.922H369.044V459ZM400.494 459H402.025V438.312H409.978V436.922H392.509V438.312H400.494V459Z" fill="black"/>
<path d="M426.699 397L400.899 330.7H315.999L290.499 397H263.199L346.899 181.9H371.199L454.599 397H426.699ZM368.799 241.9C368.199 240.3 367.199 237.4 365.799 233.2C364.399 229 362.999 224.7 361.599 220.3C360.399 215.7 359.399 212.2 358.599 209.8C357.599 213.8 356.499 217.9 355.299 222.1C354.299 226.1 353.199 229.8 351.999 233.2C350.999 236.6 350.099 239.5 349.299 241.9L324.999 306.7H392.799L368.799 241.9Z" fill="black"/>
<rect x="26.5" y="25.5" width="1387" height="609" stroke="black" stroke-width="5"/>
</svg>
