<svg width="545" height="620" viewBox="0 0 545 620" fill="none" xmlns="http://www.w3.org/2000/svg">
<circle cx="12.5" cy="16.5" r="12.25" stroke="black" stroke-width="0.5"/>
<path d="M538.878 20.0652C537.489 23.8814 535.291 26.9812 532.872 28.9115C530.45 30.845 527.843 31.5806 525.603 30.7656C523.364 29.9506 521.84 27.7114 521.227 24.6729C520.615 21.6395 520.923 17.8518 522.312 14.0356C523.701 10.2194 525.9 7.11967 528.318 5.18935C530.741 3.25588 533.348 2.5202 535.587 3.33523C537.827 4.15026 539.351 6.38945 539.964 9.42789C540.576 12.4614 540.267 16.249 538.878 20.0652Z" stroke="black" stroke-width="0.5"/>
<path d="M538.878 83.0652C537.489 86.8814 535.291 89.9812 532.872 91.9115C530.45 93.845 527.843 94.5806 525.603 93.7656C523.364 92.9506 521.84 90.7114 521.227 87.6729C520.615 84.6395 520.923 80.8518 522.312 77.0356C523.701 73.2194 525.9 70.1197 528.318 68.1894C530.741 66.2559 533.348 65.5202 535.587 66.3352C537.827 67.1503 539.351 69.3894 539.964 72.4279C540.576 75.4614 540.267 79.249 538.878 83.0652Z" stroke="black" stroke-width="0.5"/>
<path d="M538.644 149.98C537.268 153.76 535.094 156.819 532.716 158.716C530.331 160.62 527.815 161.305 525.689 160.531C523.563 159.757 522.076 157.615 521.472 154.623C520.87 151.642 521.171 147.901 522.547 144.121C523.923 140.341 526.097 137.282 528.474 135.385C530.86 133.481 533.375 132.796 535.502 133.57C537.628 134.344 539.115 136.486 539.719 139.477C540.32 142.459 540.019 146.199 538.644 149.98Z" stroke="black"/>
<path d="M538.644 214.98C537.268 218.76 535.094 221.819 532.716 223.716C530.331 225.62 527.815 226.305 525.689 225.531C523.563 224.757 522.076 222.615 521.472 219.623C520.87 216.642 521.171 212.901 522.547 209.121C523.923 205.341 526.097 202.282 528.474 200.385C530.86 198.481 533.375 197.796 535.502 198.57C537.628 199.344 539.115 201.486 539.719 204.477C540.32 207.459 540.019 211.199 538.644 214.98Z" stroke="black"/>
<path d="M538.174 279.809C536.824 283.517 534.699 286.494 532.404 288.325C530.094 290.169 527.761 290.753 525.86 290.061C523.959 289.369 522.547 287.422 521.962 284.525C521.382 281.647 521.667 278 523.017 274.292C524.367 270.584 526.492 267.607 528.786 265.776C531.096 263.932 533.43 263.348 535.331 264.04C537.231 264.732 538.644 266.679 539.229 269.576C539.809 272.454 539.523 276.1 538.174 279.809Z" stroke="black" stroke-width="2"/>
<path d="M538.174 344.809C536.824 348.517 534.699 351.494 532.404 353.325C530.094 355.169 527.761 355.753 525.86 355.061C523.959 354.369 522.547 352.422 521.962 349.525C521.382 346.647 521.667 343 523.017 339.292C524.367 335.584 526.492 332.607 528.786 330.776C531.096 328.932 533.43 328.348 535.331 329.04C537.231 329.732 538.644 331.679 539.229 334.576C539.809 337.454 539.523 341.1 538.174 344.809Z" stroke="black" stroke-width="2"/>
<path d="M537.704 409.638C536.38 413.274 534.304 416.17 532.093 417.934C529.857 419.718 527.706 420.201 526.031 419.591C524.356 418.981 523.018 417.229 522.452 414.426C521.893 411.652 522.163 408.099 523.487 404.463C524.81 400.827 526.887 397.931 529.098 396.166C531.333 394.383 533.485 393.9 535.16 394.51C536.835 395.119 538.173 396.872 538.738 399.675C539.298 402.448 539.027 406.001 537.704 409.638Z" stroke="black" stroke-width="3"/>
<path d="M537.704 474.638C536.38 478.274 534.304 481.17 532.093 482.934C529.857 484.718 527.706 485.201 526.031 484.591C524.356 483.981 523.018 482.229 522.452 479.426C521.893 476.652 522.163 473.099 523.487 469.463C524.81 465.827 526.887 462.931 529.098 461.166C531.333 459.383 533.485 458.9 535.16 459.51C536.835 460.119 538.173 461.872 538.738 464.675C539.298 467.448 539.027 471.001 537.704 474.638Z" stroke="black" stroke-width="3"/>
<path d="M537.234 539.467C535.937 543.031 533.909 545.845 531.781 547.544C529.621 549.267 527.651 549.649 526.202 549.121C524.753 548.594 523.489 547.036 522.942 544.327C522.404 541.658 522.659 538.198 523.957 534.634C525.254 531.07 527.282 528.256 529.41 526.557C531.57 524.833 533.54 524.452 534.989 524.98C536.438 525.507 537.702 527.065 538.248 529.774C538.787 532.443 538.531 535.902 537.234 539.467Z" stroke="black" stroke-width="4"/>
<path d="M537.234 604.467C535.937 608.031 533.909 610.845 531.781 612.544C529.621 614.267 527.651 614.649 526.202 614.121C524.753 613.594 523.489 612.036 522.942 609.327C522.404 606.658 522.659 603.198 523.957 599.634C525.254 596.07 527.282 593.256 529.41 591.557C531.57 589.833 533.54 589.452 534.989 589.98C536.438 590.507 537.702 592.065 538.248 594.774C538.787 597.443 538.531 600.902 537.234 604.467Z" stroke="black" stroke-width="4"/>
<circle cx="12.5" cy="81.5" r="12.25" stroke="black" stroke-width="0.5"/>
<circle cx="12.5" cy="146.5" r="12" stroke="black"/>
<circle cx="12.5" cy="211.5" r="12" stroke="black"/>
<circle cx="12.5" cy="276.5" r="11.5" stroke="black" stroke-width="2"/>
<circle cx="12.5" cy="341.5" r="11.5" stroke="black" stroke-width="2"/>
<circle cx="12.5" cy="406.5" r="11" stroke="black" stroke-width="3"/>
<circle cx="12.5" cy="471.5" r="11" stroke="black" stroke-width="3"/>
<circle cx="12.5" cy="536.5" r="10.5" stroke="black" stroke-width="4"/>
<circle cx="12.5" cy="601.5" r="10.5" stroke="black" stroke-width="4"/>
</svg>
